<?xml version="1.0" standalone="no"?>
<!DOCTYPE svg PUBLIC "-//W3C//DTD SVG 1.1//EN" "http://www.w3.org/Graphics/SVG/1.1/DTD/svg11.dtd" >
<svg xmlns="http://www.w3.org/2000/svg">
<metadata>
This is a custom SVG font generated by IcoMoon.
<iconset grid="16"></iconset>
</metadata>
<defs>
<font id="apt-custom" horiz-adv-x="512" >
<font-face units-per-em="512" ascent="480" descent="-32" />
<missing-glyph horiz-adv-x="512" />
<glyph class="hidden" unicode="&#xf00f;" d="M0,480L 512 -32L0 -32 z" horiz-adv-x="0" />
<glyph unicode="&#xf000;" d="M 485.429,426.857q0-10 -12.286-22.286l-180.571-180.571l0-219.429 l 91.429,0 q 7.429,0 12.857-5.429t 5.429-12.857t-5.429-12.857t-12.857-5.429l-256,0 q-7.429,0 -12.857,5.429t-5.429,12.857t 5.429,12.857t 12.857,5.429l 91.429,0 l0,219.429 l-180.571,180.571q-12.286,12.286 -12.286,22.286q0,6.571 5.143,10.429t 10.857,5t 12.286,1.143l 402.286,0 q 6.571,0 12.286-1.143t 10.857-5t 5.143-10.429z"  />
<glyph unicode="&#xf001;" d="M 438.857,416l0-320 q0-14.286 -9.714-25.429t-24.571-17.286t-29.571-9.143t-27.571-3t-27.571,3t-29.571,9.143t-24.571,17.286t-9.714,25.429t 9.714,25.429t 24.571,17.286t 29.571,9.143t 27.571,3q 30,0 54.857-11.143l0,153.429 l-219.429-67.714l0-202.571 q0-14.286 -9.714-25.429t-24.571-17.286t-29.571-9.143t-27.571-3t-27.571,3t-29.571,9.143t-24.571,17.286t-9.714,25.429 t 9.714,25.429t 24.571,17.286t 29.571,9.143t 27.571,3q 30,0 54.857-11.143l0,276.286 q0,8.857 5.429,16.143t 14,10.143l 237.714,73.143q 3.429,1.143 8,1.143q 11.429,0 19.429-8t 8-19.429z" horiz-adv-x="438.857"  />
<glyph unicode="&#xf002;" d="M 329.143,242.286q0,52.857 -37.571,90.429t-90.429,37.571t-90.429-37.571t-37.571-90.429t 37.571-90.429t 90.429-37.571t 90.429,37.571t 37.571,90.429zM 475.429,4.571q0-14.857 -10.857-25.714t-25.714-10.857q-15.429,0 -25.714,10.857l-98,97.714q-51.143-35.429 -114-35.429q-40.857,0 -78.143,15.857t-64.286,42.857t-42.857,64.286t-15.857,78.143 t 15.857,78.143t 42.857,64.286t 64.286,42.857t 78.143,15.857t 78.143-15.857t 64.286-42.857t 42.857-64.286t 15.857-78.143q0-62.857 -35.429-114l 98-98q 10.571-10.571 10.571-25.714z" horiz-adv-x="475.429"  />
<glyph unicode="&#xf003;" d="M 475.429,50.286l0,219.429 q-9.143-10.286 -19.714-18.857q-76.571-58.857 -121.714-96.571q-14.571-12.286 -23.714-19.143t-24.714-13.857t-29.286-7l-0.286,0 l-0.286,0 q-13.714,0 -29.286,7t-24.714,13.857t-23.714,19.143q-45.143,37.714 -121.714,96.571q-10.571,8.571 -19.714,18.857l0-219.429 q0-3.714 2.714-6.429t 6.429-2.714l 420.571,0 q 3.714,0 6.429,2.714t 2.714,6.429zM 475.429,350.571l0,3.143 l0,3.857 t-0.143,3.714 t-0.857,3.571t-1.571,2.571t-2.571,2.143t-4,0.714l-420.571,0 q-3.714,0 -6.429-2.714t-2.714-6.429q0-48 42-81.143q 55.143-43.429 114.571-90.571q 1.714-1.429 10-8.429t 13.143-10.714t 12.714-9t 14.429-7.857t 12.286-2.571l 0.286,0 l 0.286,0 q 5.714,0 12.286,2.571t 14.429,7.857t 12.714,9t 13.143,10.714t 10,8.429q 59.429,47.143 114.571,90.571q 15.429,12.286 28.714,33t 13.286,37.571z M 512,361.143l0-310.857 q0-18.857 -13.429-32.286t-32.286-13.429l-420.571,0 q-18.857,0 -32.286,13.429t-13.429,32.286l0,310.857 q0,18.857 13.429,32.286t 32.286,13.429l 420.571,0 q 18.857,0 32.286-13.429t 13.429-32.286z"  />
<glyph unicode="&#xf004;" d="M 256,4.571q-7.429,0 -12.571,5.143l-178.286,172q-2.857,2.286 -7.857,7.429t-15.857,18.714t-19.429,27.857t-15.286,34.571t-6.714,39.429q0,62.857 36.286,98.286t 100.286,35.429q 17.714,0 36.143-6.143t 34.286-16.571t 27.286-19.571t 21.714-19.429q 10.286,10.286 21.714,19.429t 27.286,19.571t 34.286,16.571t 36.143,6.143q 64,0 100.286-35.429t 36.286-98.286q0-63.143 -65.429-128.571l-178-171.429 q-5.143-5.143 -12.571-5.143z"  />
<glyph unicode="&#xf005;" d="M 475.429,295.143q0-6.286 -7.429-13.714l-103.714-101.143l 24.571-142.857q 0.286-2 0.286-5.714q0-6 -3-10.143t-8.714-4.143q-5.429,0 -11.429,3.429l-128.286,67.429l-128.286-67.429q-6.286-3.429 -11.429-3.429q-6,0 -9,4.143t-3,10.143q0,1.714 0.571,5.714l 24.571,142.857l-104,101.143q-7.143,7.714 -7.143,13.714q0,10.571 16,13.143l 143.429,20.857l 64.286,130q 5.429,11.714 14,11.714t 14-11.714l 64.286-130 l 143.429-20.857q 16-2.571 16-13.143z" horiz-adv-x="475.429"  />
<glyph unicode="&#xf006;" d="M 324.857,193.143l 87.429,84.857l-120.571,17.714l-54,109.143l-54-109.143l-120.571-17.714l 87.429-84.857l-20.857-120.286l 108,56.857l 107.714-56.857zM 475.429,295.143q0-6.286 -7.429-13.714l-103.714-101.143l 24.571-142.857q 0.286-2 0.286-5.714q0-14.286 -11.714-14.286q-5.429,0 -11.429,3.429l-128.286,67.429l-128.286-67.429q-6.286-3.429 -11.429-3.429q-6,0 -9,4.143t-3,10.143q0,1.714 0.571,5.714l 24.571,142.857 l-104,101.143q-7.143,7.714 -7.143,13.714q0,10.571 16,13.143l 143.429,20.857l 64.286,130q 5.429,11.714 14,11.714t 14-11.714l 64.286-130l 143.429-20.857q 16-2.571 16-13.143z" horiz-adv-x="475.429"  />
<glyph unicode="&#xf007;" d="M 402.286,78.571q0-34.286 -20.857-54.143t-55.429-19.857l-249.714,0 q-34.571,0 -55.429,19.857t-20.857,54.143q0,15.143 1,29.571t 4,31.143t 7.571,31t 12.286,27.857t 17.714,23.143t 24.429,15.286t 31.857,5.714q 2.571,0 12-6.143t 21.286-13.714t 30.857-13.714t 38.143-6.143t 38.143,6.143t 30.857,13.714t 21.286,13.714t 12,6.143q 17.429,0 31.857-5.714t 24.429-15.286t 17.714-23.143 t 12.286-27.857t 7.571-31t 4-31.143t 1-29.571zM 310.857,333.714q0-45.429 -32.143-77.571t-77.571-32.143t-77.571,32.143t-32.143,77.571t 32.143,77.571t 77.571,32.143t 77.571-32.143t 32.143-77.571z" horiz-adv-x="402.286"  />
<glyph unicode="&#xf008;" d="M 109.714,22.857l0,36.571 q0,7.429 -5.429,12.857t-12.857,5.429l-36.571,0 q-7.429,0 -12.857-5.429t-5.429-12.857l0-36.571 q0-7.429 5.429-12.857t 12.857-5.429l 36.571,0 q 7.429,0 12.857,5.429t 5.429,12.857zM 109.714,132.571l0,36.571 q0,7.429 -5.429,12.857t-12.857,5.429l-36.571,0 q-7.429,0 -12.857-5.429t-5.429-12.857l0-36.571 q0-7.429 5.429-12.857t 12.857-5.429l 36.571,0 q 7.429,0 12.857,5.429t 5.429,12.857zM 109.714,242.286l0,36.571 q0,7.429 -5.429,12.857t-12.857,5.429l-36.571,0  q-7.429,0 -12.857-5.429t-5.429-12.857l0-36.571 q0-7.429 5.429-12.857t 12.857-5.429l 36.571,0 q 7.429,0 12.857,5.429t 5.429,12.857zM 402.286,22.857l0,146.286 q0,7.429 -5.429,12.857t-12.857,5.429l-219.429,0 q-7.429,0 -12.857-5.429t-5.429-12.857l0-146.286 q0-7.429 5.429-12.857t 12.857-5.429l 219.429,0 q 7.429,0 12.857,5.429t 5.429,12.857zM 109.714,352l0,36.571 q0,7.429 -5.429,12.857t-12.857,5.429l-36.571,0 q-7.429,0 -12.857-5.429t-5.429-12.857l0-36.571 q0-7.429 5.429-12.857 t 12.857-5.429l 36.571,0 q 7.429,0 12.857,5.429t 5.429,12.857zM 512,22.857l0,36.571 q0,7.429 -5.429,12.857t-12.857,5.429l-36.571,0 q-7.429,0 -12.857-5.429t-5.429-12.857l0-36.571 q0-7.429 5.429-12.857t 12.857-5.429l 36.571,0 q 7.429,0 12.857,5.429t 5.429,12.857zM 402.286,242.286l0,146.286 q0,7.429 -5.429,12.857t-12.857,5.429l-219.429,0 q-7.429,0 -12.857-5.429t-5.429-12.857l0-146.286 q0-7.429 5.429-12.857t 12.857-5.429l 219.429,0 q 7.429,0 12.857,5.429t 5.429,12.857zM 512,132.571l0,36.571  q0,7.429 -5.429,12.857t-12.857,5.429l-36.571,0 q-7.429,0 -12.857-5.429t-5.429-12.857l0-36.571 q0-7.429 5.429-12.857t 12.857-5.429l 36.571,0 q 7.429,0 12.857,5.429t 5.429,12.857zM 512,242.286l0,36.571 q0,7.429 -5.429,12.857t-12.857,5.429l-36.571,0 q-7.429,0 -12.857-5.429t-5.429-12.857l0-36.571 q0-7.429 5.429-12.857t 12.857-5.429l 36.571,0 q 7.429,0 12.857,5.429t 5.429,12.857zM 512,352l0,36.571 q0,7.429 -5.429,12.857t-12.857,5.429l-36.571,0 q-7.429,0 -12.857-5.429 t-5.429-12.857l0-36.571 q0-7.429 5.429-12.857t 12.857-5.429l 36.571,0 q 7.429,0 12.857,5.429t 5.429,12.857zM 548.571,397.714l0-384 q0-18.857 -13.429-32.286t-32.286-13.429l-457.143,0 q-18.857,0 -32.286,13.429t-13.429,32.286l0,384 q0,18.857 13.429,32.286t 32.286,13.429l 457.143,0 q 18.857,0 32.286-13.429t 13.429-32.286z" horiz-adv-x="548.571"  />
<glyph unicode="&#xf009;" d="M 219.429,187.429l0-109.714 q0-14.857 -10.857-25.714t-25.714-10.857l-146.286,0 q-14.857,0 -25.714,10.857t-10.857,25.714l0,109.714 q0,14.857 10.857,25.714t 25.714,10.857l 146.286,0 q 14.857,0 25.714-10.857t 10.857-25.714zM 219.429,406.857l0-109.714 q0-14.857 -10.857-25.714t-25.714-10.857l-146.286,0 q-14.857,0 -25.714,10.857t-10.857,25.714l0,109.714 q0,14.857 10.857,25.714t 25.714,10.857l 146.286,0 q 14.857,0 25.714-10.857t 10.857-25.714zM 475.429,187.429l0-109.714 q0-14.857 -10.857-25.714t-25.714-10.857 l-146.286,0 q-14.857,0 -25.714,10.857t-10.857,25.714l0,109.714 q0,14.857 10.857,25.714t 25.714,10.857l 146.286,0 q 14.857,0 25.714-10.857t 10.857-25.714zM 475.429,406.857l0-109.714 q0-14.857 -10.857-25.714t-25.714-10.857l-146.286,0 q-14.857,0 -25.714,10.857t-10.857,25.714l0,109.714 q0,14.857 10.857,25.714t 25.714,10.857l 146.286,0 q 14.857,0 25.714-10.857t 10.857-25.714z" horiz-adv-x="475.429"  />
<glyph unicode="&#xf00a;" d="M 146.286,123.429l0-54.857 q0-11.429 -8-19.429t-19.429-8l-91.429,0 q-11.429,0 -19.429,8t-8,19.429l0,54.857 q0,11.429 8,19.429t 19.429,8l 91.429,0 q 11.429,0 19.429-8t 8-19.429zM 146.286,269.714l0-54.857 q0-11.429 -8-19.429t-19.429-8l-91.429,0 q-11.429,0 -19.429,8t-8,19.429l0,54.857 q0,11.429 8,19.429t 19.429,8l 91.429,0 q 11.429,0 19.429-8t 8-19.429zM 329.143,123.429l0-54.857 q0-11.429 -8-19.429t-19.429-8l-91.429,0  q-11.429,0 -19.429,8t-8,19.429l0,54.857 q0,11.429 8,19.429t 19.429,8l 91.429,0 q 11.429,0 19.429-8t 8-19.429zM 146.286,416l0-54.857 q0-11.429 -8-19.429t-19.429-8l-91.429,0 q-11.429,0 -19.429,8t-8,19.429l0,54.857 q0,11.429 8,19.429t 19.429,8l 91.429,0 q 11.429,0 19.429-8t 8-19.429zM 329.143,269.714l0-54.857 q0-11.429 -8-19.429t-19.429-8l-91.429,0 q-11.429,0 -19.429,8t-8,19.429l0,54.857 q0,11.429 8,19.429t 19.429,8 l 91.429,0 q 11.429,0 19.429-8t 8-19.429zM 512,123.429l0-54.857 q0-11.429 -8-19.429t-19.429-8l-91.429,0 q-11.429,0 -19.429,8t-8,19.429l0,54.857 q0,11.429 8,19.429t 19.429,8l 91.429,0 q 11.429,0 19.429-8t 8-19.429zM 329.143,416l0-54.857 q0-11.429 -8-19.429t-19.429-8l-91.429,0 q-11.429,0 -19.429,8t-8,19.429l0,54.857 q0,11.429 8,19.429t 19.429,8l 91.429,0 q 11.429,0 19.429-8t 8-19.429zM 512,269.714l0-54.857  q0-11.429 -8-19.429t-19.429-8l-91.429,0 q-11.429,0 -19.429,8t-8,19.429l0,54.857 q0,11.429 8,19.429t 19.429,8l 91.429,0 q 11.429,0 19.429-8t 8-19.429zM 512,416l0-54.857 q0-11.429 -8-19.429t-19.429-8l-91.429,0 q-11.429,0 -19.429,8t-8,19.429l0,54.857 q0,11.429 8,19.429t 19.429,8l 91.429,0 q 11.429,0 19.429-8t 8-19.429z"  />
<glyph unicode="&#xf00b;" d="M 146.286,123.429l0-54.857 q0-11.429 -8-19.429t-19.429-8l-91.429,0 q-11.429,0 -19.429,8t-8,19.429l0,54.857 q0,11.429 8,19.429t 19.429,8l 91.429,0 q 11.429,0 19.429-8t 8-19.429zM 146.286,269.714l0-54.857 q0-11.429 -8-19.429t-19.429-8l-91.429,0 q-11.429,0 -19.429,8t-8,19.429l0,54.857 q0,11.429 8,19.429t 19.429,8l 91.429,0 q 11.429,0 19.429-8t 8-19.429zM 512,123.429l0-54.857 q0-11.429 -8-19.429t-19.429-8l-274.286,0  q-11.429,0 -19.429,8t-8,19.429l0,54.857 q0,11.429 8,19.429t 19.429,8l 274.286,0 q 11.429,0 19.429-8t 8-19.429zM 146.286,416l0-54.857 q0-11.429 -8-19.429t-19.429-8l-91.429,0 q-11.429,0 -19.429,8t-8,19.429l0,54.857 q0,11.429 8,19.429t 19.429,8l 91.429,0 q 11.429,0 19.429-8t 8-19.429zM 512,269.714l0-54.857 q0-11.429 -8-19.429t-19.429-8l-274.286,0 q-11.429,0 -19.429,8t-8,19.429l0,54.857 q0,11.429 8,19.429t 19.429,8 l 274.286,0 q 11.429,0 19.429-8t 8-19.429zM 512,416l0-54.857 q0-11.429 -8-19.429t-19.429-8l-274.286,0 q-11.429,0 -19.429,8t-8,19.429l0,54.857 q0,11.429 8,19.429t 19.429,8l 274.286,0 q 11.429,0 19.429-8t 8-19.429z"  />
<glyph unicode="&#xf00c;" d="M 477.429,318.286q0-11.429 -8-19.429l-206.857-206.857l-38.857-38.857q-8-8 -19.429-8t-19.429,8l-38.857,38.857l-103.429,103.429q-8,8 -8,19.429t 8,19.429l 38.857,38.857q 8,8 19.429,8t 19.429-8l 84-84.286l 187.429,187.714q 8,8 19.429,8t 19.429-8l 38.857-38.857q 8-8 8-19.429z"  />
<glyph unicode="&#xf00d;" d="M 370.857,102.286q0-11.429 -8-19.429l-38.857-38.857q-8-8 -19.429-8t-19.429,8l-84,84l-84-84q-8-8 -19.429-8t-19.429,8l-38.857,38.857q-8,8 -8,19.429t 8,19.429l 84,84l-84,84q-8,8 -8,19.429t 8,19.429l 38.857,38.857q 8,8 19.429,8t 19.429-8l 84-84l 84,84q 8,8 19.429,8t 19.429-8l 38.857-38.857q 8-8 8-19.429 t-8-19.429l-84-84l 84-84q 8-8 8-19.429z" horiz-adv-x="402.286"  />
<glyph unicode="&#xf00e;" d="M 292.571,251.429l0-18.286 q0-3.714 -2.714-6.429t-6.429-2.714l-64,0 l0-64 q0-3.714 -2.714-6.429t-6.429-2.714l-18.286,0 q-3.714,0 -6.429,2.714t-2.714,6.429l0,64 l-64,0 q-3.714,0 -6.429,2.714t-2.714,6.429l0,18.286 q0,3.714 2.714,6.429t 6.429,2.714l 64,0 l0,64 q0,3.714 2.714,6.429t 6.429,2.714l 18.286,0 q 3.714,0 6.429-2.714t 2.714-6.429l0-64 l 64,0  q 3.714,0 6.429-2.714t 2.714-6.429zM 329.143,242.286q0,52.857 -37.571,90.429t-90.429,37.571t-90.429-37.571t-37.571-90.429t 37.571-90.429t 90.429-37.571t 90.429,37.571t 37.571,90.429zM 475.429,4.571q0-15.143 -10.714-25.857t-25.857-10.714q-15.429,0 -25.714,10.857l-98,97.714q-51.143-35.429 -114-35.429q-40.857,0 -78.143,15.857 t-64.286,42.857t-42.857,64.286t-15.857,78.143t 15.857,78.143t 42.857,64.286t 64.286,42.857t 78.143,15.857t 78.143-15.857t 64.286-42.857t 42.857-64.286t 15.857-78.143q0-62.857 -35.429-114l 98-98q 10.571-10.571 10.571-25.714z" horiz-adv-x="475.429"  />
<glyph unicode="&#xf010;" d="M 292.571,251.429l0-18.286 q0-3.714 -2.714-6.429t-6.429-2.714l-164.571,0 q-3.714,0 -6.429,2.714t-2.714,6.429l0,18.286 q0,3.714 2.714,6.429t 6.429,2.714l 164.571,0 q 3.714,0 6.429-2.714t 2.714-6.429zM 329.143,242.286q0,52.857 -37.571,90.429t-90.429,37.571t-90.429-37.571t-37.571-90.429t 37.571-90.429t 90.429-37.571t 90.429,37.571t 37.571,90.429z M 475.429,4.571q0-15.143 -10.714-25.857t-25.857-10.714q-15.429,0 -25.714,10.857l-98,97.714q-51.143-35.429 -114-35.429q-40.857,0 -78.143,15.857t-64.286,42.857t-42.857,64.286t-15.857,78.143t 15.857,78.143t 42.857,64.286t 64.286,42.857t 78.143,15.857t 78.143-15.857t 64.286-42.857t 42.857-64.286t 15.857-78.143q0-62.857 -35.429-114l 98-98q 10.571-10.571 10.571-25.714z " horiz-adv-x="475.429"  />
<glyph unicode="&#xf011;" d="M 438.857,224q0-44.571 -17.429-85.143t-46.857-70t-70-46.857t-85.143-17.429t-85.143,17.429t-70,46.857t-46.857,70t-17.429,85.143q0,52 23,98t 64.714,77.143q 12.286,9.143 27.286,7.143t 23.857-14.286q 9.143-12 7-27t-14.143-24.143q-28-21.143 -43.286-51.714t-15.286-65.143q0-29.714 11.571-56.714t 31.286-46.714t 46.714-31.286 t 56.714-11.571t 56.714,11.571t 46.714,31.286t 31.286,46.714t 11.571,56.714q0,34.571 -15.286,65.143t-43.286,51.714q-12,9.143 -14.143,24.143t 7,27q 8.857,12.286 24,14.286t 27.143-7.143q 41.714-31.143 64.714-77.143t 23-98zM 256,443.429l0-182.857 q0-14.857 -10.857-25.714t-25.714-10.857t-25.714,10.857t-10.857,25.714l0,182.857 q0,14.857 10.857,25.714t 25.714,10.857t 25.714-10.857t 10.857-25.714z" horiz-adv-x="438.857"  />
<glyph unicode="&#xf012;" d="M 73.143,68.571l0-54.857 q0-4 -2.571-6.571t-6.571-2.571l-54.857,0 q-4,0 -6.571,2.571t-2.571,6.571l0,54.857 q0,4 2.571,6.571t 6.571,2.571l 54.857,0 q 4,0 6.571-2.571t 2.571-6.571zM 182.857,105.143l0-91.429 q0-4 -2.571-6.571t-6.571-2.571l-54.857,0 q-4,0 -6.571,2.571t-2.571,6.571l0,91.429 q0,4 2.571,6.571t 6.571,2.571l 54.857,0 q 4,0 6.571-2.571t 2.571-6.571zM 292.571,178.286l0-164.571 q0-4 -2.571-6.571t-6.571-2.571l-54.857,0 q-4,0 -6.571,2.571t-2.571,6.571 l0,164.571 q0,4 2.571,6.571t 6.571,2.571l 54.857,0 q 4,0 6.571-2.571t 2.571-6.571zM 402.286,288l0-274.286 q0-4 -2.571-6.571t-6.571-2.571l-54.857,0 q-4,0 -6.571,2.571t-2.571,6.571l0,274.286 q0,4 2.571,6.571t 6.571,2.571l 54.857,0 q 4,0 6.571-2.571t 2.571-6.571zM 512,434.286l0-420.571 q0-4 -2.571-6.571t-6.571-2.571l-54.857,0 q-4,0 -6.571,2.571t-2.571,6.571l0,420.571 q0,4 2.571,6.571t 6.571,2.571l 54.857,0 q 4,0 6.571-2.571t 2.571-6.571z"  />
<glyph unicode="&#xf013;" d="M 292.571,224q0,30.286 -21.429,51.714t-51.714,21.429t-51.714-21.429t-21.429-51.714t 21.429-51.714t 51.714-21.429t 51.714,21.429t 21.429,51.714zM 438.857,255.143l0-63.429 q0-3.429 -2.286-6.571t-5.714-3.714l-52.857-8q-5.429-15.429 -11.143-26q 10-14.286 30.571-39.429q 2.857-3.429 2.857-7.143t-2.571-6.571q-7.714-10.571 -28.286-30.857t-26.857-20.286q-3.429,0 -7.429,2.571l-39.429,30.857q-12.571-6.571 -26-10.857 q-4.571-38.857 -8.286-53.143q-2-8 -10.286-8l-63.429,0 q-4,0 -7,2.429t-3.286,6.143l-8,52.571q-14,4.571 -25.714,10.571l-40.286-30.571q-2.857-2.571 -7.143-2.571q-4,0 -7.143,3.143q-36,32.571 -47.143,48q-2,2.857 -2,6.571q0,3.429 2.286,6.571q 4.286,6 14.571,19t 15.429,20.143q-7.714,14.286 -11.714,28.286l-52.286,7.714q-3.714,0.571 -6,3.571t-2.286,6.714l0,63.429 q0,3.429 2.286,6.571t 5.429,3.714 l 53.143,8q 4,13.143 11.143,26.286q-11.429,16.286 -30.571,39.429q-2.857,3.429 -2.857,6.857q0,2.857 2.571,6.571q 7.429,10.286 28.143,30.714t 27,20.429q 3.714,0 7.429-2.857l 39.429-30.571q 12.571,6.571 26,10.857q 4.571,38.857 8.286,53.143q 2,8 10.286,8l 63.429,0 q 4,0 7-2.429t 3.286-6.143l 8-52.571q 14-4.571 25.714-10.571l 40.571,30.571q 2.571,2.571 6.857,2.571q 3.714,0 7.143-2.857q 36.857-34 47.143-48.571q 2-2.286 2-6.286 q0-3.429 -2.286-6.571q-4.286-6 -14.571-19t-15.429-20.143q 7.429-14.286 11.714-28l 52.286-8q 3.714-0.571 6-3.571t 2.286-6.714z" horiz-adv-x="438.857"  />
<glyph unicode="&#xf014;" d="M 146.286,269.714l0-164.571 q0-4 -2.571-6.571t-6.571-2.571l-18.286,0 q-4,0 -6.571,2.571t-2.571,6.571l0,164.571 q0,4 2.571,6.571t 6.571,2.571l 18.286,0 q 4,0 6.571-2.571t 2.571-6.571zM 219.429,269.714l0-164.571 q0-4 -2.571-6.571t-6.571-2.571l-18.286,0 q-4,0 -6.571,2.571t-2.571,6.571l0,164.571 q0,4 2.571,6.571t 6.571,2.571l 18.286,0 q 4,0 6.571-2.571t 2.571-6.571zM 292.571,269.714l0-164.571 q0-4 -2.571-6.571t-6.571-2.571l-18.286,0 q-4,0 -6.571,2.571t-2.571,6.571l0,164.571  q0,4 2.571,6.571t 6.571,2.571l 18.286,0 q 4,0 6.571-2.571t 2.571-6.571zM 329.143,62.857l0,270.857 l-256,0 l0-270.857 q0-6.286 2-11.571t 4.143-7.714t 3-2.429l 237.714,0 q 0.857,0 3,2.429t 4.143,7.714t 2,11.571zM 137.143,370.286l 128,0 l-13.714,33.429q-2,2.571 -4.857,3.143l-90.571,0 q-2.857-0.571 -4.857-3.143zM 402.286,361.143l0-18.286 q0-4 -2.571-6.571t-6.571-2.571l-27.429,0 l0-270.857 q0-23.714 -13.429-41t-32.286-17.286l-237.714,0  q-18.857,0 -32.286,16.714t-13.429,40.429l0,272 l-27.429,0 q-4,0 -6.571,2.571t-2.571,6.571l0,18.286 q0,4 2.571,6.571t 6.571,2.571l 88.286,0 l 20,47.714q 4.286,10.571 15.429,18t 22.571,7.429l 91.429,0 q 11.429,0 22.571-7.429t 15.429-18l 20-47.714l 88.286,0 q 4,0 6.571-2.571t 2.571-6.571z" horiz-adv-x="402.286"  />
<glyph unicode="&#xf015;" d="M 402.286,196.571l0-137.143 q0-7.429 -5.429-12.857t-12.857-5.429l-109.714,0 l0,109.714 l-73.143,0 l0-109.714 l-109.714,0 q-7.429,0 -12.857,5.429t-5.429,12.857l0,137.143 q0,0.286 0.143,0.857t 0.143,0.857l 164.286,135.429l 164.286-135.429q 0.286-0.571 0.286-1.714zM 466,216.286l-17.714-21.143q-2.286-2.571 -6-3.143l-0.857,0 q-3.714,0 -6,2l-197.714,164.857l-197.714-164.857q-3.429-2.286 -6.857-2q-3.714,0.571 -6,3.143l-17.714,21.143q-2.286,2.857 -2,6.714t 3.143,6.143 l 205.429,171.143q 9.143,7.429 21.714,7.429t 21.714-7.429l 69.714-58.286l0,55.714 q0,4 2.571,6.571t 6.571,2.571l 54.857,0 q 4,0 6.571-2.571t 2.571-6.571l0-116.571 l 62.571-52q 2.857-2.286 3.143-6.143t-2-6.714z" horiz-adv-x="475.429"  />
<glyph unicode="&#xf016;" d="M 36.571,41.143l 292.571,0 l0,219.429 l-118.857,0 q-11.429,0 -19.429,8t-8,19.429l0,118.857 l-146.286,0 l0-365.714 zM 219.429,297.143l 107.429,0 q-2.857,8.286 -6.286,11.714l-89.429,89.429q-3.429,3.429 -11.714,6.286l0-107.429 zM 365.714,288l0-256 q0-11.429 -8-19.429t-19.429-8l-310.857,0 q-11.429,0 -19.429,8t-8,19.429l0,384 q0,11.429 8,19.429t 19.429,8l 182.857,0 q 11.429,0 25.143-5.714t 21.714-13.714l 89.143-89.143q 8-8 13.714-21.714t 5.714-25.143z " horiz-adv-x="365.714"  />
<glyph unicode="&#xf017;" d="M 256,324.571l0-128 q0-4 -2.571-6.571t-6.571-2.571l-91.429,0 q-4,0 -6.571,2.571t-2.571,6.571l0,18.286 q0,4 2.571,6.571t 6.571,2.571l 64,0 l0,100.571 q0,4 2.571,6.571t 6.571,2.571l 18.286,0 q 4,0 6.571-2.571t 2.571-6.571zM 374.857,224q0,42.286 -20.857,78t-56.571,56.571t-78,20.857t-78-20.857t-56.571-56.571t-20.857-78t 20.857-78t 56.571-56.571t 78-20.857t 78,20.857t 56.571,56.571t 20.857,78zM 438.857,224 q0-59.714 -29.429-110.143t-79.857-79.857t-110.143-29.429t-110.143,29.429t-79.857,79.857t-29.429,110.143t 29.429,110.143t 79.857,79.857t 110.143,29.429t 110.143-29.429t 79.857-79.857t 29.429-110.143z" horiz-adv-x="438.857"  />
<glyph unicode="&#xf018;" d="M 317.429,195.429l0,1.143 l-6.857,91.429q-0.286,3.714 -3.143,6.429t-6.571,2.714l-53.143,0 q-3.714,0 -6.571-2.714t-3.143-6.429l-6.857-91.429l0-1.143 q-0.286-3.429 2.286-5.714t 6-2.286l 69.714,0 q 3.429,0 6,2.286t 2.286,5.714zM 534.286,62q0-20.857 -13.143-20.857l-201.143,0 q 3.714,0 6.286,2.714t 2.286,6.429l-5.714,73.143q-0.286,3.714 -3.143,6.429t-6.571,2.714l-77.714,0 q-3.714,0 -6.571-2.714t-3.143-6.429l-5.714-73.143 q-0.286-3.714 2.286-6.429t 6.286-2.714l-201.143,0 q-13.143,0 -13.143,20.857q0,15.429 7.429,33.143l 119.143,298.286q 2.286,5.429 7.429,9.429t 10.857,4l 96.857,0 q-3.714,0 -6.571-2.714t-3.143-6.429l-4.286-54.857q-0.286-4 2.286-6.571t 6.286-2.571l 47.429,0 q 3.714,0 6.286,2.571t 2.286,6.571l-4.286,54.857q-0.286,3.714 -3.143,6.429t-6.571,2.714l 96.857,0 q 5.714,0 10.857-4t 7.429-9.429l 119.143-298.286q 7.429-17.714 7.429-33.143z" horiz-adv-x="548.571"  />
<glyph unicode="&#xf019;" d="M 365.714,96q0,7.429 -5.429,12.857t-12.857,5.429t-12.857-5.429t-5.429-12.857t 5.429-12.857t 12.857-5.429t 12.857,5.429t 5.429,12.857zM 438.857,96q0,7.429 -5.429,12.857t-12.857,5.429t-12.857-5.429t-5.429-12.857t 5.429-12.857t 12.857-5.429t 12.857,5.429t 5.429,12.857zM 475.429,160l0-91.429 q0-11.429 -8-19.429t-19.429-8l-420.571,0 q-11.429,0 -19.429,8t-8,19.429l0,91.429 q0,11.429 8,19.429t 19.429,8l 132.857,0 l 38.571-38.857 q 16.571-16 38.857-16t 38.857,16l 38.857,38.857l 132.571,0 q 11.429,0 19.429-8t 8-19.429zM 382.571,322.571q 4.857-11.714 -4-20l-128-128q-5.143-5.429 -12.857-5.429t-12.857,5.429l-128,128q-8.857,8.286 -4,20q 4.857,11.143 16.857,11.143l 73.143,0 l0,128 q0,7.429 5.429,12.857t 12.857,5.429l 73.143,0 q 7.429,0 12.857-5.429t 5.429-12.857l0-128 l 73.143,0 q 12,0 16.857-11.143z" horiz-adv-x="475.429"  />
<glyph unicode="&#xf01a;" d="M 320,214.857q0-3.429 -2.857-6.857l-91.143-91.143q-3.143-2.571 -6.571-2.571t-6.571,2.571l-91.429,91.429q-4.286,4.571 -2,10q 2.286,5.714 8.571,5.714l 54.857,0 l0,100.571 q0,4 2.571,6.571t 6.571,2.571l 54.857,0 q 4,0 6.571-2.571t 2.571-6.571l0-100.571 l 54.857,0 q 4,0 6.571-2.571t 2.571-6.571zM 219.429,379.429q-42.286,0 -78-20.857t-56.571-56.571t-20.857-78t 20.857-78t 56.571-56.571t 78-20.857t 78,20.857t 56.571,56.571t 20.857,78 t-20.857,78t-56.571,56.571t-78,20.857zM 438.857,224q0-59.714 -29.429-110.143t-79.857-79.857t-110.143-29.429t-110.143,29.429t-79.857,79.857t-29.429,110.143t 29.429,110.143t 79.857,79.857t 110.143,29.429t 110.143-29.429t 79.857-79.857t 29.429-110.143z" horiz-adv-x="438.857"  />
<glyph unicode="&#xf01b;" d="M 319.429,229.714q-2.286-5.714 -8.571-5.714l-54.857,0 l0-100.571 q0-4 -2.571-6.571t-6.571-2.571l-54.857,0 q-4,0 -6.571,2.571t-2.571,6.571l0,100.571 l-54.857,0 q-4,0 -6.571,2.571t-2.571,6.571q0,3.429 2.857,6.857l 91.143,91.143q 3.143,2.571 6.571,2.571t 6.571-2.571l 91.429-91.429q 4.286-4.571 2-10zM 219.429,379.429q-42.286,0 -78-20.857t-56.571-56.571t-20.857-78t 20.857-78t 56.571-56.571t 78-20.857t 78,20.857t 56.571,56.571 t 20.857,78t-20.857,78t-56.571,56.571t-78,20.857zM 438.857,224q0-59.714 -29.429-110.143t-79.857-79.857t-110.143-29.429t-110.143,29.429t-79.857,79.857t-29.429,110.143t 29.429,110.143t 79.857,79.857t 110.143,29.429t 110.143-29.429t 79.857-79.857t 29.429-110.143z" horiz-adv-x="438.857"  />
<glyph unicode="&#xf01c;" d="M 292.286,205.714l 90.286,0 q-0.286,0.857 -0.714,2.286t-0.714,2.286l-60.571,141.714l-202.286,0 l-60.571-141.714q-0.286-0.571 -0.714-2.286t-0.714-2.286l 90.286,0 l 27.143-54.857l 91.429,0 zM 438.857,197.143l0-137.714 q0-7.429 -5.429-12.857t-12.857-5.429l-402.286,0 q-7.429,0 -12.857,5.429t-5.429,12.857l0,137.714 q0,17.714 7.143,35.143l 68,157.714q 2.857,7.143 10.429,12t 15,4.857l 237.714,0 q 7.429,0 15-4.857t 10.429-12l 68-157.714 q 7.143-17.429 7.143-35.143z" horiz-adv-x="438.857"  />
<glyph unicode="&#xf01d;" d="M 338.286,224q0-10.571 -9.143-15.714l-155.429-91.429q-4.286-2.571 -9.143-2.571q-4.571,0 -9.143,2.286q-9.143,5.429 -9.143,16l0,182.857 q0,10.571 9.143,16q 9.429,5.143 18.286-0.286l 155.429-91.429q 9.143-5.143 9.143-15.714zM 374.857,224q0,42.286 -20.857,78t-56.571,56.571t-78,20.857t-78-20.857t-56.571-56.571t-20.857-78t 20.857-78t 56.571-56.571t 78-20.857t 78,20.857t 56.571,56.571t 20.857,78zM 438.857,224 q0-59.714 -29.429-110.143t-79.857-79.857t-110.143-29.429t-110.143,29.429t-79.857,79.857t-29.429,110.143t 29.429,110.143t 79.857,79.857t 110.143,29.429t 110.143-29.429t 79.857-79.857t 29.429-110.143z" horiz-adv-x="438.857"  />
<glyph unicode="&#xf01e;" d="M 438.857,406.857l0-128 q0-7.429 -5.429-12.857t-12.857-5.429l-128,0 q-12,0 -16.857,11.429q-4.857,11.143 4,19.714l 39.429,39.429q-42.286,39.143 -99.714,39.143q-29.714,0 -56.714-11.571t-46.714-31.286t-31.286-46.714t-11.571-56.714t 11.571-56.714t 31.286-46.714t 46.714-31.286t 56.714-11.571q 34,0 64.286,14.857t 51.143,42q 2,2.857 6.571,3.429q 4,0 7.143-2.571 l 39.143-39.429q 2.571-2.286 2.714-5.857t-2.143-6.429q-31.143-37.714 -75.429-58.429t-93.429-20.714q-44.571,0 -85.143,17.429t-70,46.857t-46.857,70t-17.429,85.143t 17.429,85.143t 46.857,70t 70,46.857t 85.143,17.429q 42,0 81.286-15.857t 69.857-44.714l 37.143,36.857q 8.286,8.857 20,4q 11.143-4.857 11.143-16.857z" horiz-adv-x="438.857"  />
<glyph unicode="&#xf021;" d="M 431.714,178.286q0-1.429 -0.286-2q-18.286-76.571 -76.571-124.143t-136.571-47.571q-41.714,0 -80.714,15.714t-69.571,44.857l-36.857-36.857q-5.429-5.429 -12.857-5.429t-12.857,5.429t-5.429,12.857l0,128 q0,7.429 5.429,12.857t 12.857,5.429l 128,0 q 7.429,0 12.857-5.429t 5.429-12.857t-5.429-12.857l-39.143-39.143q 20.286-18.857 46-29.143t 53.429-10.286q 38.286,0 71.429,18.571t 53.143,51.143q 3.143,4.857 15.143,33.429 q 2.286,6.571 8.571,6.571l 54.857,0 q 3.714,0 6.429-2.714t 2.714-6.429zM 438.857,406.857l0-128 q0-7.429 -5.429-12.857t-12.857-5.429l-128,0 q-7.429,0 -12.857,5.429t-5.429,12.857t 5.429,12.857l 39.429,39.429q-42.286,39.143 -99.714,39.143q-38.286,0 -71.429-18.571t-53.143-51.143q-3.143-4.857 -15.143-33.429q-2.286-6.571 -8.571-6.571l-56.857,0 q-3.714,0 -6.429,2.714t-2.714,6.429l0,2 q 18.571,76.571 77.143,124.143t 137.143,47.571 q 41.714,0 81.143-15.857t 70-44.714l 37.143,36.857q 5.429,5.429 12.857,5.429t 12.857-5.429t 5.429-12.857z" horiz-adv-x="438.857"  />
<glyph unicode="&#xf022;" d="M 109.714,141.714l0-18.286 q0-3.714 -2.714-6.429t-6.429-2.714l-18.286,0 q-3.714,0 -6.429,2.714t-2.714,6.429l0,18.286 q0,3.714 2.714,6.429t 6.429,2.714l 18.286,0 q 3.714,0 6.429-2.714t 2.714-6.429zM 109.714,214.857l0-18.286 q0-3.714 -2.714-6.429t-6.429-2.714l-18.286,0 q-3.714,0 -6.429,2.714t-2.714,6.429l0,18.286 q0,3.714 2.714,6.429t 6.429,2.714l 18.286,0 q 3.714,0 6.429-2.714t 2.714-6.429z M 109.714,288l0-18.286 q0-3.714 -2.714-6.429t-6.429-2.714l-18.286,0 q-3.714,0 -6.429,2.714t-2.714,6.429l0,18.286 q0,3.714 2.714,6.429t 6.429,2.714l 18.286,0 q 3.714,0 6.429-2.714t 2.714-6.429zM 438.857,141.714l0-18.286 q0-3.714 -2.714-6.429t-6.429-2.714l-274.286,0 q-3.714,0 -6.429,2.714t-2.714,6.429l0,18.286 q0,3.714 2.714,6.429t 6.429,2.714l 274.286,0 q 3.714,0 6.429-2.714t 2.714-6.429z M 438.857,214.857l0-18.286 q0-3.714 -2.714-6.429t-6.429-2.714l-274.286,0 q-3.714,0 -6.429,2.714t-2.714,6.429l0,18.286 q0,3.714 2.714,6.429t 6.429,2.714l 274.286,0 q 3.714,0 6.429-2.714t 2.714-6.429zM 438.857,288l0-18.286 q0-3.714 -2.714-6.429t-6.429-2.714l-274.286,0 q-3.714,0 -6.429,2.714t-2.714,6.429l0,18.286 q0,3.714 2.714,6.429t 6.429,2.714l 274.286,0 q 3.714,0 6.429-2.714 t 2.714-6.429zM 475.429,86.857l0,237.714 q0,3.714 -2.714,6.429t-6.429,2.714l-420.571,0 q-3.714,0 -6.429-2.714t-2.714-6.429l0-237.714 q0-3.714 2.714-6.429t 6.429-2.714l 420.571,0 q 3.714,0 6.429,2.714t 2.714,6.429zM 512,397.714l0-310.857 q0-18.857 -13.429-32.286t-32.286-13.429l-420.571,0 q-18.857,0 -32.286,13.429t-13.429,32.286l0,310.857 q0,18.857 13.429,32.286t 32.286,13.429l 420.571,0 q 18.857,0 32.286-13.429 t 13.429-32.286z"  />
<glyph unicode="&#xf023;" d="M 91.429,260.571l 146.286,0 l0,54.857 q0,30.286 -21.429,51.714t-51.714,21.429t-51.714-21.429t-21.429-51.714l0-54.857 zM 329.143,233.143l0-164.571 q0-11.429 -8-19.429t-19.429-8l-274.286,0 q-11.429,0 -19.429,8t-8,19.429l0,164.571 q0,11.429 8,19.429t 19.429,8l 9.143,0 l0,54.857 q0,52.571 37.714,90.286t 90.286,37.714t 90.286-37.714t 37.714-90.286l0-54.857 l 9.143,0 q 11.429,0 19.429-8t 8-19.429z" horiz-adv-x="329.143"  />
<glyph unicode="&#xf024;" d="M 91.429,406.857q0-20.571 -18.286-31.429l0-361.714 q0-3.714 -2.714-6.429t-6.429-2.714l-18.286,0 q-3.714,0 -6.429,2.714t-2.714,6.429l0,361.714 q-18.286,10.857 -18.286,31.429q0,15.143 10.714,25.857t 25.857,10.714t 25.857-10.714t 10.714-25.857zM 512,388.571l0-218 q0-7.143 -3.571-11t-11.286-7.857q-61.429-33.143 -105.429-33.143q-17.429,0 -35.286,6.286t-31,13.714 t-33,13.714t-40.714,6.286q-54.857,0 -132.571-41.714q-4.857-2.571 -9.429-2.571q-7.429,0 -12.857,5.429t-5.429,12.857l0,212 q0,9.143 8.857,15.714q 6,4 22.571,12.286q 67.429,34.286 120.286,34.286q 30.571,0 57.143-8.286t 62.571-25.143q 10.857-5.429 25.143-5.429q 15.429,0 33.571,6t 31.429,13.429t 25.143,13.429t 15.571,6q 7.429,0 12.857-5.429t 5.429-12.857z"  />
<glyph unicode="&#xf025;" d="M 475.429,226.857q0-47.429 -17.143-89.714l-5.714-14l-52.857-9.429q-6.286-23.714 -25.857-39t-44.714-15.286l0-9.143 q0-4 -2.571-6.571t-6.571-2.571l-18.286,0 q-4,0 -6.571,2.571t-2.571,6.571l0,164.571 q0,4 2.571,6.571t 6.571,2.571l 18.286,0 q 4,0 6.571-2.571t 2.571-6.571l0-9.143 q 20.286,0 37.143-10.143t 26.571-27.286l 19.429,3.429q 8.286,27.143 8.286,55.143q0,42.286 -25.143,79.714t-67.571,59.714t-90.143,22.286 t-90.143-22.286t-67.571-59.714t-25.143-79.714q0-28 8.286-55.143l 19.429-3.429q 9.714,17.143 26.571,27.286t 37.143,10.143l0,9.143 q0,4 2.571,6.571t 6.571,2.571l 18.286,0 q 4,0 6.571-2.571t 2.571-6.571l0-164.571 q0-4 -2.571-6.571t-6.571-2.571l-18.286,0 q-4,0 -6.571,2.571t-2.571,6.571l0,9.143 q-25.143,0 -44.714,15.286t-25.857,39l-52.857,9.429l-5.714,14q-17.143,42.286 -17.143,89.714q0,43.143 19.143,83.143t 51.143,69.286 t 76,46.714t 91.429,17.429t 91.429-17.429t 76-46.714t 51.143-69.286t 19.143-83.143z" horiz-adv-x="475.429"  />
<glyph unicode="&#xf026;" d="M 219.429,379.429l0-310.857 q0-7.429 -5.429-12.857t-12.857-5.429t-12.857,5.429l-95.143,95.143l-74.857,0 q-7.429,0 -12.857,5.429t-5.429,12.857l0,109.714 q0,7.429 5.429,12.857t 12.857,5.429l 74.857,0 l 95.143,95.143q 5.429,5.429 12.857,5.429t 12.857-5.429t 5.429-12.857z" horiz-adv-x="219.429"  />
<glyph unicode="&#xf027;" d="M 219.429,379.429l0-310.857 q0-7.429 -5.429-12.857t-12.857-5.429t-12.857,5.429l-95.143,95.143l-74.857,0 q-7.429,0 -12.857,5.429t-5.429,12.857l0,109.714 q0,7.429 5.429,12.857t 12.857,5.429l 74.857,0 l 95.143,95.143q 5.429,5.429 12.857,5.429t 12.857-5.429t 5.429-12.857zM 329.143,224q0-21.714 -12.143-40.429t-32.143-26.714q-2.857-1.429 -7.143-1.429q-7.429,0 -12.857,5.286t-5.429,13q0,6 3.429,10.143t 8.286,7.143t 9.714,6.571t 8.286,10.143 t 3.429,16.286t-3.429,16.286t-8.286,10.143t-9.714,6.571t-8.286,7.143t-3.429,10.143q0,7.714 5.429,13t 12.857,5.286q 4.286,0 7.143-1.429q 20-7.714 32.143-26.571t 12.143-40.571z" horiz-adv-x="329.143"  />
<glyph unicode="&#xf028;" d="M 219.429,379.429l0-310.857 q0-7.429 -5.429-12.857t-12.857-5.429t-12.857,5.429l-95.143,95.143l-74.857,0 q-7.429,0 -12.857,5.429t-5.429,12.857l0,109.714 q0,7.429 5.429,12.857t 12.857,5.429l 74.857,0 l 95.143,95.143q 5.429,5.429 12.857,5.429t 12.857-5.429t 5.429-12.857zM 329.143,224q0-21.714 -12.143-40.429t-32.143-26.714q-2.857-1.429 -7.143-1.429q-7.429,0 -12.857,5.286t-5.429,13q0,6 3.429,10.143t 8.286,7.143t 9.714,6.571t 8.286,10.143 t 3.429,16.286t-3.429,16.286t-8.286,10.143t-9.714,6.571t-8.286,7.143t-3.429,10.143q0,7.714 5.429,13t 12.857,5.286q 4.286,0 7.143-1.429q 20-7.714 32.143-26.571t 12.143-40.571zM 402.286,224q0-43.714 -24.286-80.714t-64.286-53.857q-3.714-1.429 -7.143-1.429q-7.714,0 -13.143,5.429t-5.429,12.857q0,11.143 11.143,16.857q 16,8.286 21.714,12.571q 21.143,15.429 33,38.714t 11.857,49.571t-11.857,49.571 t-33,38.714q-5.714,4.286 -21.714,12.571q-11.143,5.714 -11.143,16.857q0,7.429 5.429,12.857t 12.857,5.429q 3.714,0 7.429-1.429q 40-16.857 64.286-53.857t 24.286-80.714zM 475.429,224q0-65.714 -36.286-120.714t-96.571-81q-3.714-1.429 -7.429-1.429q-7.429,0 -12.857,5.429t-5.429,12.857q0,10.286 11.143,16.857q 2,1.143 6.429,3t 6.429,3q 13.143,7.143 23.429,14.571q 35.143,26 54.857,64.857t 19.714,82.571t-19.714,82.571 t-54.857,64.857q-10.286,7.429 -23.429,14.571q-2,1.143 -6.429,3t-6.429,3q-11.143,6.571 -11.143,16.857q0,7.429 5.429,12.857t 12.857,5.429q 3.714,0 7.429-1.429q 60.286-26 96.571-81t 36.286-120.714z" horiz-adv-x="475.429"  />
<glyph unicode="&#xf029;" d="M 109.714,150.857l0-36.571 l-36.571,0 l0,36.571 l 36.571,0 zM 109.714,370.286l0-36.571 l-36.571,0 l0,36.571 l 36.571,0 zM 329.143,370.286l0-36.571 l-36.571,0 l0,36.571 l 36.571,0 zM 36.571,78l 109.714,0 l0,109.429 l-109.714,0 l0-109.429 zM 36.571,297.143l 109.714,0 l0,109.714 l-109.714,0 l0-109.714 zM 256,297.143l 109.714,0 l0,109.714 l-109.714,0 l0-109.714 zM 182.857,224l0-182.857 l-182.857,0 l0,182.857 l 182.857,0 zM 329.143,77.714l0-36.571 l-36.571,0 l0,36.571 l 36.571,0 zM 402.286,77.714l0-36.571 l-36.571,0 l0,36.571 l 36.571,0 z M 402.286,224l0-109.714 l-109.714,0 l0,36.571 l-36.571,0 l0-109.714 l-36.571,0 l0,182.857 l 109.714,0 l0-36.571 l 36.571,0 l0,36.571 l 36.571,0 zM 182.857,443.429l0-182.857 l-182.857,0 l0,182.857 l 182.857,0 zM 402.286,443.429l0-182.857 l-182.857,0 l0,182.857 l 182.857,0 z" horiz-adv-x="402.286"  />
<glyph unicode="&#xf02a;" d="M 18,41.143l-18,0 l0,402.286 l 18,0 l0-402.286 zM 36,41.429l-9.143,0 l0,402 l 9.143,0 l0-402 zM 62.857,41.429l-8.857,0 l0,402 l 8.857,0 l0-402 zM 107.714,41.429l-8.857,0 l0,402 l 8.857,0 l0-402 zM 152.571,41.429l-17.714,0 l0,402 l 17.714,0 l0-402 zM 188.571,41.429l-8.857,0 l0,402 l 8.857,0 l0-402 zM 206.571,41.429l-8.857,0 l0,402 l 8.857,0 l0-402 zM 224.571,41.429l-8.857,0 l0,402 l 8.857,0 l0-402 zM 269.429,41.429l-18,0 l0,402 l 18,0 l0-402 zM 314.286,41.429l-18,0 l0,402 l 18,0 l0-402 z M 350.286,41.429l-18,0 l0,402 l 18,0 l0-402 zM 386.286,41.429l-18,0 l0,402 l 18,0 l0-402 zM 413.143,41.429l-18,0 l0,402 l 18,0 l0-402 zM 467.143,41.429l-26.857,0 l0,402 l 26.857,0 l0-402 zM 485.143,41.429l-9.143,0 l0,402 l 9.143,0 l0-402 zM 512,41.143l-18,0 l0,402.286 l 18,0 l0-402.286 z"  />
<glyph unicode="&#xf02b;" d="M 128,352q0,15.143 -10.714,25.857t-25.857,10.714t-25.857-10.714t-10.714-25.857t 10.714-25.857t 25.857-10.714t 25.857,10.714t 10.714,25.857zM 432.857,187.429q0-15.143 -10.571-25.714l-140.286-140.571q-11.143-10.571 -26-10.571q-15.143,0 -25.714,10.571l-204.286,204.571q-10.857,10.571 -18.429,28.857t-7.571,33.429l0,118.857 q0,14.857 10.857,25.714t 25.714,10.857l 118.857,0 q 15.143,0 33.429-7.571t 29.143-18.429 l 204.286-204q 10.571-11.143 10.571-26z" horiz-adv-x="438.857"  />
<glyph unicode="&#xf02c;" d="M 128,352q0,15.143 -10.714,25.857t-25.857,10.714t-25.857-10.714t-10.714-25.857t 10.714-25.857t 25.857-10.714t 25.857,10.714t 10.714,25.857zM 432.857,187.429q0-15.143 -10.571-25.714l-140.286-140.571q-11.143-10.571 -26-10.571q-15.143,0 -25.714,10.571l-204.286,204.571q-10.857,10.571 -18.429,28.857t-7.571,33.429l0,118.857 q0,14.857 10.857,25.714t 25.714,10.857l 118.857,0 q 15.143,0 33.429-7.571t 29.143-18.429 l 204.286-204q 10.571-11.143 10.571-26zM 542.571,187.429q0-15.143 -10.571-25.714l-140.286-140.571q-11.143-10.571 -26-10.571q-10.286,0 -16.857,4t-15.143,12.857l 134.286,134.286q 10.571,10.571 10.571,25.714q0,14.857 -10.571,26l-204.286,204q-10.857,10.857 -29.143,18.429t-33.429,7.571l 64,0 q 15.143,0 33.429-7.571t 29.143-18.429l 204.286-204q 10.571-11.143 10.571-26z" horiz-adv-x="548.571"  />
<glyph unicode="&#xf02d;" d="M 468.286,343.429q 11.429-16.286 5.143-36.857l-78.571-258.857q-5.429-18.286 -21.857-30.714t-35-12.429l-263.714,0 q-22,0 -42.429,15.286t-28.429,37.571q-6.857,19.143 -0.571,36.286q0,1.143 0.857,7.714t 1.143,10.571q 0.286,2.286 -0.857,6.143t-0.857,5.571q 0.571,3.143 2.286,6t 4.714,6.714t 4.714,6.714q 6.571,10.857 12.857,26.143t 8.571,26.143q 0.857,2.857 0.143,8.571t-0.143,8q 0.857,3.143 4.857,8t 4.857,6.571 q 6,10.286 12,26.286t 7.143,25.714q 0.286,2.571 -0.714,9.143t 0.143,8q 1.143,3.714 6.286,8.714t 6.286,6.429q 5.429,7.429 12.143,24.143t 7.857,27.571q 0.286,2.286 -0.857,7.286t-0.571,7.571q 0.571,2.286 2.571,5.143t 5.143,6.571t 4.857,6q 2.286,3.429 4.714,8.714t 4.286,10t 4.571,10.286t 5.571,9.143t 7.571,6.714t 10.286,3.286t 13.571-1.571l-0.286-0.857q 10.857,2.571 14.571,2.571l 217.429,0 q 21.143,0 32.571-16t 5.143-37.143l-78.286-258.857 q-10.286-34 -20.429-43.857t-36.714-9.857l-248.286,0 q-7.714,0 -10.857-4.286q-3.143-4.571 -0.286-12.286q 6.857-20 41.143-20l 263.714,0 q 8.286,0 16,4.429t 10,11.857l 85.714,282q 2,6.286 1.429,16.286q 10.857-4.286 16.857-12.286zM 164.286,342.857q-1.143-3.714 0.571-6.429t 5.714-2.714l 173.714,0 q 3.714,0 7.286,2.714t 4.714,6.429l 6,18.286q 1.143,3.714 -0.571,6.429t-5.714,2.714l-173.714,0 q-3.714,0 -7.286-2.714 t-4.714-6.429zM 140.571,269.714q-1.143-3.714 0.571-6.429t 5.714-2.714l 173.714,0 q 3.714,0 7.286,2.714t 4.714,6.429l 6,18.286q 1.143,3.714 -0.571,6.429t-5.714,2.714l-173.714,0 q-3.714,0 -7.286-2.714t-4.714-6.429z" horiz-adv-x="475.429"  />
<glyph unicode="&#xf02e;" d="M 332.571,443.429q 6.571,0 12.571-2.571q 9.429-3.714 15-11.714t 5.571-17.714l0-368.286 q0-9.714 -5.571-17.714t-15-11.714q-5.429-2.286 -12.571-2.286q-13.714,0 -23.714,9.143l-126,121.143l-126-121.143q-10.286-9.429 -23.714-9.429q-6.571,0 -12.571,2.571q-9.429,3.714 -15,11.714t-5.571,17.714l0,368.286 q0,9.714 5.571,17.714t 15,11.714q 6,2.571 12.571,2.571l 299.429,0 z" horiz-adv-x="365.714"  />
<glyph unicode="&#xf02f;" d="M 109.714,41.143l 256,0 l0,73.143 l-256,0 l0-73.143 zM 109.714,224l 256,0 l0,109.714 l-45.714,0 q-11.429,0 -19.429,8t-8,19.429l0,45.714 l-182.857,0 l0-182.857 zM 438.857,205.714q0,7.429 -5.429,12.857t-12.857,5.429t-12.857-5.429t-5.429-12.857t 5.429-12.857t 12.857-5.429t 12.857,5.429t 5.429,12.857zM 475.429,205.714l0-118.857 q0-3.714 -2.714-6.429t-6.429-2.714l-64,0 l0-45.714 q0-11.429 -8-19.429t-19.429-8l-274.286,0 q-11.429,0 -19.429,8t-8,19.429 l0,45.714 l-64,0 q-3.714,0 -6.429,2.714t-2.714,6.429l0,118.857 q0,22.571 16.143,38.714t 38.714,16.143l 18.286,0 l0,155.429 q0,11.429 8,19.429t 19.429,8l 192,0 q 11.429,0 25.143-5.714t 21.714-13.714l 43.429-43.429q 8-8 13.714-21.714t 5.714-25.143l0-73.143 l 18.286,0 q 22.571,0 38.714-16.143t 16.143-38.714z" horiz-adv-x="475.429"  />
<glyph unicode="&#xf030;" d="M 274.286,288q 34,0 58.143-24.143t 24.143-58.143t-24.143-58.143t-58.143-24.143t-58.143,24.143t-24.143,58.143t 24.143,58.143t 58.143,24.143zM 475.429,406.857q 30.286,0 51.714-21.429t 21.429-51.714l0-256 q0-30.286 -21.429-51.714t-51.714-21.429l-402.286,0 q-30.286,0 -51.714,21.429t-21.429,51.714l0,256 q0,30.286 21.429,51.714t 51.714,21.429l 64,0 l 14.571,38.857 q 5.429,14 19.857,24.143t 29.571,10.143l 146.286,0 q 15.143,0 29.571-10.143t 19.857-24.143l 14.571-38.857l 64,0 zM 274.286,77.714q 52.857,0 90.429,37.571t 37.571,90.429t-37.571,90.429t-90.429,37.571t-90.429-37.571t-37.571-90.429t 37.571-90.429t 90.429-37.571z" horiz-adv-x="548.571"  />
<glyph unicode="&#xf031;" d="M 207.143,320.286l-48.571-128.571q 20.857-0.286 43.857-0.571t 34-0.429t 15-0.143l 8.286,0.571q-9.143,27.143 -26.286,68.857q-15.143,37.714 -26.286,60.286zM 6,4.571l-6,0 l 0.571,22.571q 6.286,2 22.857,5.143q 25.429,4.571 31.429,8.857q 5.714,4.571 13.714,19.429l 67.714,176l 80,206.857l 21.429,0 l 15.143,0 l 3.143-6l 58.571-137.143q 29.429-69.143 35.429-84.857q 11.143-29.143 27.429-67.143q 7.429-16.571 18.571-46.857q 6.857-19.143 18.571-42.571 q 6.286-14 10-16.286q 6.286-5.429 19.714-6.571q 13.429-1.714 29.429-7.714q 1.714-11.143 1.714-16.286q0-4 -0.286-7.429q-22.857,0 -54.857,2.286q-26.571,2.286 -54,2.286q-22.571,0 -38.571-0.571l-57.143-3.143l-16.571-0.571q0,12.857 1.143,22.286l 37.429,8q 16,3.714 19.429,6.571q 3.429,3.429 3.429,7.714t-1.714,9.143l-13.429,32.571l-26.286,65.143l-128.571,0.571q-8.286-18.571 -29.714-78.286q-6.571-18.286 -6.571-24q0-8.857 4.857-12.286 q 7.429-6 29.429-9.143q 0.857,0 3.857-0.571t 8.571-1.429t 11.571-1.714q 0.286-8 0.286-16.571q0-4.857 -0.571-7.714q-18.857,0 -99.714,5.714l-13.714-2.286q-23.143-4 -47.714-4z" horiz-adv-x="475.429"  />
<glyph unicode="&#xf032;" d="M 158.571,45.429q 21.714-9.143 40-9.143q 37.429,0 61.714,11.714t 34.857,32.286q 10.857,20 10.857,51.714q0,32.571 -11.714,51.429q-16.571,26.857 -40.286,36q-22.857,9.143 -70.571,9.143q-21.143,0 -28.857-2.857l0-41.143 l-0.286-49.429l 0.857-77.143q0-4.286 3.429-12.571zM 154.571,258.571q 12.286-2 31.143-2q 50,0 75.429,18.571t 25.429,64q0,32 -24.286,53.429q-24,21.429 -72.857,21.429q-14.857,0 -37.143-3.714q0-12.571 0.571-22 q 2-34.857 1.714-79.714l-0.286-28q0-12.286 0.286-22zM0,4.571l 0.571,26.857q 12.857,2.571 19.429,3.429q 22,3.429 35.143,8.857q 4.857,7.714 6,14.571q 2.571,18.857 2.571,55.429l-0.571,142q-1.429,73.143 -2.571,115.429q-0.286,24.857 -3.143,31.143q-0.286,1.143 -3.429,3.429q-5.143,3.429 -19.714,4.286q-8.571,0.571 -32.571,3.714l-1.143,23.714l 74.286,1.714l 108.571,3.714l 12.857,0.286q 1.429,0 4,0.143t 4,0.143q 0.286,0 6.143-0.143t 11.571-0.143l 21.143,0 q 25.143,0 54.571-7.714 q 12.286-3.714 27.429-11.143q 16.286-8.286 29.143-21.714q 12.571-13.429 18.571-29.714t 6-34.857q0-20 -9.143-36.571t-27.143-30q-7.429-5.714 -42.857-22q 50.571-11.714 76.286-41.714q 26.286-30.286 26.286-67.429q0-21.714 -8.286-46q-6-17.714 -20.286-33.429q-18.857-20.571 -40-30.857q-20.857-10.286 -58-17.143q-23.429-4.286 -56.571-3.143l-56.286,1.143q-24,0.571 -85.143-3.143q-9.429-0.857 -77.714-3.143z" horiz-adv-x="402.286"  />
<glyph unicode="&#xf033;" d="M0,5.143l 4.857,24.286q 1.143,0.286 22,5.714q 21.714,5.429 33.143,11.143q 8.286,10.571 11.714,28.857l 7.714,39.714l 16,76.571l 3.429,18.286q 2.286,12.571 4.857,24.143t 4.571,19.143t 3.571,13.286t 2.571,8.714t 1,3.286l 8.286,44.857l 4.571,18l 6.286,38.571l 2.286,14.286l0,10.857 q-11.714,6.286 -41.143,8q-8,0.571 -10.857,1.143l 5.429,29.429l 90.571-4q 11.143-0.571 20.857-0.571q 18.857,0 61.143,2.571q 9.429,0.571 19.429,1.286t 10.286,0.714q-0.571-5.429 -1.714-10.857 q-2-8.286 -3.714-14.571q-15.714-5.429 -31.143-8.857q-18.286-4.571 -28.857-8.857q-3.429-8.857 -6.857-25.143q-2.571-12.571 -3.714-23.429q-12.571-56.857 -18.857-87.429l-17.429-88.857l-10.857-45.143l-12.286-67.143l-3.429-12.857q-0.571-2 0.286-7.714q 18.286-4.286 34-6q 10.286-1.429 18.857-2.857q-0.286-8.286 -2-16.571q-2-8.857 -2.571-11.714q-5.143,0 -6.571-0.286q-6.857-0.571 -12-0.571q-2.571,0 -8,0.857q-5.429,1.143 -41.429,4.857 l-56.571,0.571q-11.714,0.286 -49.714-3.143q-21.143-2 -28-2.571z" horiz-adv-x="292.571"  />
<glyph unicode="&#xf034;" d="M 23.143,443.143l 15.429-7.714q 5.714-1.429 60.286-1.429l 37.143,0 l 5.429,0.857l 32.857,0.286l 61.429-0.286l 83.714,0 l 9.714-0.571q 4-0.286 8,2t 6,4.571l 2,2.286l 12,0.286q 4.286,0 8-0.286l0-29.857 t 0.286-37.571l 0.286-28.571l-0.286-16.571q0-9.143 -1.143-14.571q-11.143-4.286 -19.429-5.143q-7.143,12.286 -15.429,36.571q-2.286,6.857 -4.429,17.857t-3.286,18.714t-1.714,8.286q-3.714,4.286 -7.714,5.429q-2,0.571 -12.143,0.571t-29.571-0.286t-31.714-0.286 q-9.714,0 -19.143-1.429q-2.857-27.714 -2.286-38.857l 0.286-43.429l0-94.857 l 0.857-102.571l-0.286-42q-0.286-13.143 3.143-24.286q 14-7.143 25.429-9.143q 0.571,0 5.143-1.429t 12.571-3.714t 12.286-3.429q 8.571-2.286 14.286-5.143q 1.429-12.857 1.429-14.286q0-2.857 -0.857-8.286q-4-0.286 -9.714-0.286q-31.429,0 -53.429,2.857q-20.571,2.286 -68,2.286q-25.143,0 -66.571-4q-13.714-1.143 -20-1.143q-0.571,6.286 -0.571,7.429l-0.286,7.429l0,2.571 q 6,9.429 22.571,14 q 39.714,10.857 45.429,14.286q 2.571,6 3.429,16q 2.286,54.857 1.714,123.714l-1.429,122.286q-0.286,17.714 -0.143,33.857t 0.143,29.286t-0.571,16.286t-1.714,4.286q-1.714,1.429 -4,1.714q-10.857,1.714 -42.286,1.714q-12.286,0 -28.571-3.857t-20.857-7q-3.714-2.571 -6.286-9.429t-6.286-21.429t-6.857-24q-1.714-5.429 -5.571-9.143t-5.857-3.714q-12.571,7.714 -16,12.571l0,84.857 l0,24.571 zM 498.286,77.714q 9.429,0 12-5.286t-3.143-12.714 l-36-46.286q-5.714-7.429 -14-7.429t-14,7.429l-36,46.286q-5.714,7.429 -3.143,12.714t 12,5.286l 22.857,0 l0,292.571 l-22.857,0 q-9.429,0 -12,5.286t 3.143,12.714l 36,46.286q 5.714,7.429 14,7.429t 14-7.429l 36-46.286q 5.714-7.429 3.143-12.714t-12-5.286l-22.857,0 l0-292.571 l 22.857,0 z"  />
<glyph unicode="&#xf035;" d="M 23.143,443.143l 15.429-7.714q 5.714-1.429 60.286-1.429l 37.143,0 l 5.429,0.857l 32.857,0.286l 127.429-0.286l 90.857,0 l 9.714-0.571q 4-0.286 8,2t 6,4.571l 2,2.286l 12,0.286q 4.286,0 8-0.286l0-29.857 t 0.286-37.571l 0.286-28.571l-0.286-16.571q0-9.143 -1.143-14.571q-11.143-4.286 -19.429-5.143q-7.143,12.286 -15.429,36.571q-2.286,6.857 -4.429,17.857t-3.286,18.714t-1.714,8.286q-3.714,4.286 -7.714,5.429q-2,0.571 -16.714,0.571t-39.571-0.286t-36.571-0.286 q-26.857,0 -36.286-1.429q-2.857-27.714 -2.286-38.857l 0.286-43.429l0,14.857 l 0.857-102.571l-0.286-42q-0.286-13.143 3.143-24.286q 14-7.143 25.429-9.143q 0.571,0 5.143-1.429t 12.571-3.714t 12.286-3.429q 8.571-2.286 14.286-5.143q 1.429-12.857 1.429-14.286q0-2.857 -0.857-8.286q-4-0.286 -9.714-0.286q-31.429,0 -53.429,2.857q-20.571,2.286 -68,2.286q-23.429,0 -66.571-3.714q-12.857-1.429 -20-1.429q-0.571,6.286 -0.571,7.429l-0.286,7.429l0,2.571 q 6,9.429 22.571,14 q 39.714,10.857 45.429,14.286q 2.571,6 3.429,16q 1.714,39.143 1.714,123.714l-1.429,12.571q0,75.714 -0.571,79.429q-0.571,3.143 -1.714,4.286q-1.714,1.429 -4,1.714q-10.857,1.714 -42.286,1.714q-14.286,0 -48.143-4t-37.857-6.857q-3.714-2.571 -6.286-9.429t-6.286-21.429t-6.857-24q-1.714-5.429 -5.571-9.143t-5.857-3.714q-12.571,7.714 -16,12.571l0,84.857 l0,24.571 zM 430,73.429q 7.429-5.714 7.429-14t-7.429-14l-46.286-36 q-7.429-5.714 -12.714-3.143t-5.286,12l0,22.857 l-292.571,0 l0-22.857 q0-9.429 -5.286-12t-12.714,3.143l-46.286,36q-7.429,5.714 -7.429,14t 7.429,14l 46.286,36q 7.429,5.714 12.714,3.143t 5.286-12l0-22.857 l 292.571,0 l0,22.857 q0,9.429 5.286,12t 12.714-3.143z" horiz-adv-x="438.857"  />
<glyph unicode="&#xf036;" d="M 512,96l0-36.571 q0-7.429 -5.429-12.857t-12.857-5.429l-475.429,0 q-7.429,0 -12.857,5.429t-5.429,12.857l0,36.571 q0,7.429 5.429,12.857t 12.857,5.429l 475.429,0 q 7.429,0 12.857-5.429t 5.429-12.857zM 402.286,205.714l0-36.571 q0-7.429 -5.429-12.857t-12.857-5.429l-365.714,0 q-7.429,0 -12.857,5.429t-5.429,12.857l0,36.571 q0,7.429 5.429,12.857t 12.857,5.429l 365.714,0 q 7.429,0 12.857-5.429t 5.429-12.857zM 475.429,315.429l0-36.571 q0-7.429 -5.429-12.857 t-12.857-5.429l-438.857,0 q-7.429,0 -12.857,5.429t-5.429,12.857l0,36.571 q0,7.429 5.429,12.857t 12.857,5.429l 438.857,0 q 7.429,0 12.857-5.429t 5.429-12.857zM 365.714,425.143l0-36.571 q0-7.429 -5.429-12.857t-12.857-5.429l-329.143,0 q-7.429,0 -12.857,5.429t-5.429,12.857l0,36.571 q0,7.429 5.429,12.857t 12.857,5.429l 329.143,0 q 7.429,0 12.857-5.429t 5.429-12.857z"  />
<glyph unicode="&#xf037;" d="M 512,96l0-36.571 q0-7.429 -5.429-12.857t-12.857-5.429l-475.429,0 q-7.429,0 -12.857,5.429t-5.429,12.857l0,36.571 q0,7.429 5.429,12.857t 12.857,5.429l 475.429,0 q 7.429,0 12.857-5.429t 5.429-12.857zM 402.286,205.714l0-36.571 q0-7.429 -5.429-12.857t-12.857-5.429l-256,0 q-7.429,0 -12.857,5.429t-5.429,12.857l0,36.571 q0,7.429 5.429,12.857t 12.857,5.429l 256,0 q 7.429,0 12.857-5.429t 5.429-12.857zM 475.429,315.429l0-36.571 q0-7.429 -5.429-12.857t-12.857-5.429 l-402.286,0 q-7.429,0 -12.857,5.429t-5.429,12.857l0,36.571 q0,7.429 5.429,12.857t 12.857,5.429l 402.286,0 q 7.429,0 12.857-5.429t 5.429-12.857zM 365.714,425.143l0-36.571 q0-7.429 -5.429-12.857t-12.857-5.429l-182.857,0 q-7.429,0 -12.857,5.429t-5.429,12.857l0,36.571 q0,7.429 5.429,12.857t 12.857,5.429l 182.857,0 q 7.429,0 12.857-5.429t 5.429-12.857z"  />
<glyph unicode="&#xf038;" d="M 512,96l0-36.571 q0-7.429 -5.429-12.857t-12.857-5.429l-475.429,0 q-7.429,0 -12.857,5.429t-5.429,12.857l0,36.571 q0,7.429 5.429,12.857t 12.857,5.429l 475.429,0 q 7.429,0 12.857-5.429t 5.429-12.857zM 512,205.714l0-36.571 q0-7.429 -5.429-12.857t-12.857-5.429l-365.714,0 q-7.429,0 -12.857,5.429t-5.429,12.857l0,36.571 q0,7.429 5.429,12.857t 12.857,5.429l 365.714,0 q 7.429,0 12.857-5.429t 5.429-12.857zM 512,315.429l0-36.571 q0-7.429 -5.429-12.857 t-12.857-5.429l-438.857,0 q-7.429,0 -12.857,5.429t-5.429,12.857l0,36.571 q0,7.429 5.429,12.857t 12.857,5.429l 438.857,0 q 7.429,0 12.857-5.429t 5.429-12.857zM 512,425.143l0-36.571 q0-7.429 -5.429-12.857t-12.857-5.429l-329.143,0 q-7.429,0 -12.857,5.429t-5.429,12.857l0,36.571 q0,7.429 5.429,12.857t 12.857,5.429l 329.143,0 q 7.429,0 12.857-5.429t 5.429-12.857z"  />
<glyph unicode="&#xf039;" d="M 512,96l0-36.571 q0-7.429 -5.429-12.857t-12.857-5.429l-475.429,0 q-7.429,0 -12.857,5.429t-5.429,12.857l0,36.571 q0,7.429 5.429,12.857t 12.857,5.429l 475.429,0 q 7.429,0 12.857-5.429t 5.429-12.857zM 512,205.714l0-36.571 q0-7.429 -5.429-12.857t-12.857-5.429l-475.429,0 q-7.429,0 -12.857,5.429t-5.429,12.857l0,36.571 q0,7.429 5.429,12.857t 12.857,5.429l 475.429,0 q 7.429,0 12.857-5.429t 5.429-12.857zM 512,315.429l0-36.571 q0-7.429 -5.429-12.857 t-12.857-5.429l-475.429,0 q-7.429,0 -12.857,5.429t-5.429,12.857l0,36.571 q0,7.429 5.429,12.857t 12.857,5.429l 475.429,0 q 7.429,0 12.857-5.429t 5.429-12.857zM 512,425.143l0-36.571 q0-7.429 -5.429-12.857t-12.857-5.429l-475.429,0 q-7.429,0 -12.857,5.429t-5.429,12.857l0,36.571 q0,7.429 5.429,12.857t 12.857,5.429l 475.429,0 q 7.429,0 12.857-5.429t 5.429-12.857z"  />
<glyph unicode="&#xf03a;" d="M 73.143,105.143l0-54.857 q0-3.714 -2.714-6.429t-6.429-2.714l-54.857,0 q-3.714,0 -6.429,2.714t-2.714,6.429l0,54.857 q0,3.714 2.714,6.429t 6.429,2.714l 54.857,0 q 3.714,0 6.429-2.714t 2.714-6.429zM 73.143,214.857l0-54.857 q0-3.714 -2.714-6.429t-6.429-2.714l-54.857,0 q-3.714,0 -6.429,2.714t-2.714,6.429l0,54.857 q0,3.714 2.714,6.429t 6.429,2.714l 54.857,0 q 3.714,0 6.429-2.714 t 2.714-6.429zM 73.143,324.571l0-54.857 q0-3.714 -2.714-6.429t-6.429-2.714l-54.857,0 q-3.714,0 -6.429,2.714t-2.714,6.429l0,54.857 q0,3.714 2.714,6.429t 6.429,2.714l 54.857,0 q 3.714,0 6.429-2.714t 2.714-6.429zM 512,105.143l0-54.857 q0-3.714 -2.714-6.429t-6.429-2.714l-384,0 q-3.714,0 -6.429,2.714t-2.714,6.429l0,54.857 q0,3.714 2.714,6.429t 6.429,2.714l 384,0  q 3.714,0 6.429-2.714t 2.714-6.429zM 73.143,434.286l0-54.857 q0-3.714 -2.714-6.429t-6.429-2.714l-54.857,0 q-3.714,0 -6.429,2.714t-2.714,6.429l0,54.857 q0,3.714 2.714,6.429t 6.429,2.714l 54.857,0 q 3.714,0 6.429-2.714t 2.714-6.429zM 512,214.857l0-54.857 q0-3.714 -2.714-6.429t-6.429-2.714l-384,0 q-3.714,0 -6.429,2.714t-2.714,6.429l0,54.857 q0,3.714 2.714,6.429 t 6.429,2.714l 384,0 q 3.714,0 6.429-2.714t 2.714-6.429zM 512,324.571l0-54.857 q0-3.714 -2.714-6.429t-6.429-2.714l-384,0 q-3.714,0 -6.429,2.714t-2.714,6.429l0,54.857 q0,3.714 2.714,6.429t 6.429,2.714l 384,0 q 3.714,0 6.429-2.714t 2.714-6.429zM 512,434.286l0-54.857 q0-3.714 -2.714-6.429t-6.429-2.714l-384,0 q-3.714,0 -6.429,2.714t-2.714,6.429l0,54.857  q0,3.714 2.714,6.429t 6.429,2.714l 384,0 q 3.714,0 6.429-2.714t 2.714-6.429z"  />
<glyph unicode="&#xf03b;" d="M 109.714,324.571l0-164.571 q0-3.714 -2.714-6.429t-6.429-2.714q-4,0 -6.571,2.571l-82.286,82.286q-2.571,2.571 -2.571,6.571t 2.571,6.571l 82.286,82.286q 2.571,2.571 6.571,2.571q 3.714,0 6.429-2.714t 2.714-6.429zM 512,105.143l0-54.857 q0-3.714 -2.714-6.429t-6.429-2.714l-493.714,0 q-3.714,0 -6.429,2.714t-2.714,6.429l0,54.857 q0,3.714 2.714,6.429t 6.429,2.714l 493.714,0 q 3.714,0 6.429-2.714 t 2.714-6.429zM 512,214.857l0-54.857 q0-3.714 -2.714-6.429t-6.429-2.714l-310.857,0 q-3.714,0 -6.429,2.714t-2.714,6.429l0,54.857 q0,3.714 2.714,6.429t 6.429,2.714l 310.857,0 q 3.714,0 6.429-2.714t 2.714-6.429zM 512,324.571l0-54.857 q0-3.714 -2.714-6.429t-6.429-2.714l-310.857,0 q-3.714,0 -6.429,2.714t-2.714,6.429l0,54.857 q0,3.714 2.714,6.429t 6.429,2.714l 310.857,0  q 3.714,0 6.429-2.714t 2.714-6.429zM 512,434.286l0-54.857 q0-3.714 -2.714-6.429t-6.429-2.714l-493.714,0 q-3.714,0 -6.429,2.714t-2.714,6.429l0,54.857 q0,3.714 2.714,6.429t 6.429,2.714l 493.714,0 q 3.714,0 6.429-2.714t 2.714-6.429z"  />
<glyph unicode="&#xf03c;" d="M 100.571,242.286q0-4 -2.571-6.571l-82.286-82.286q-2.571-2.571 -6.571-2.571q-3.714,0 -6.429,2.714t-2.714,6.429l0,164.571 q0,3.714 2.714,6.429t 6.429,2.714q 4,0 6.571-2.571l 82.286-82.286q 2.571-2.571 2.571-6.571zM 512,105.143l0-54.857 q0-3.714 -2.714-6.429t-6.429-2.714l-493.714,0 q-3.714,0 -6.429,2.714t-2.714,6.429l0,54.857 q0,3.714 2.714,6.429t 6.429,2.714l 493.714,0 q 3.714,0 6.429-2.714 t 2.714-6.429zM 512,214.857l0-54.857 q0-3.714 -2.714-6.429t-6.429-2.714l-310.857,0 q-3.714,0 -6.429,2.714t-2.714,6.429l0,54.857 q0,3.714 2.714,6.429t 6.429,2.714l 310.857,0 q 3.714,0 6.429-2.714t 2.714-6.429zM 512,324.571l0-54.857 q0-3.714 -2.714-6.429t-6.429-2.714l-310.857,0 q-3.714,0 -6.429,2.714t-2.714,6.429l0,54.857 q0,3.714 2.714,6.429t 6.429,2.714l 310.857,0  q 3.714,0 6.429-2.714t 2.714-6.429zM 512,434.286l0-54.857 q0-3.714 -2.714-6.429t-6.429-2.714l-493.714,0 q-3.714,0 -6.429,2.714t-2.714,6.429l0,54.857 q0,3.714 2.714,6.429t 6.429,2.714l 493.714,0 q 3.714,0 6.429-2.714t 2.714-6.429z"  />
<glyph unicode="&#xf03d;" d="M 512,379.429l0-310.857 q0-12 -11.143-16.857q-3.714-1.429 -7.143-1.429q-7.714,0 -12.857,5.429l-115.143,115.143l0-47.429 q0-34 -24.143-58.143t-58.143-24.143l-201.143,0 q-34,0 -58.143,24.143t-24.143,58.143l0,201.143 q0,34 24.143,58.143t 58.143,24.143l 201.143,0 q 34,0 58.143-24.143t 24.143-58.143l0-47.143 l 115.143,114.857q 5.143,5.429 12.857,5.429q 3.429,0 7.143-1.429 q 11.143-4.857 11.143-16.857z"  />
<glyph unicode="&#xf03e;" d="M 182.857,315.429q0-22.857 -16-38.857t-38.857-16t-38.857,16t-16,38.857t 16,38.857t 38.857,16t 38.857-16t 16-38.857zM 475.429,205.714l0-128 l-402.286,0 l0,54.857 l 91.429,91.429l 45.714-45.714l 146.286,146.286zM 502.857,406.857l-457.143,0 q-3.714,0 -6.429-2.714t-2.714-6.429l0-347.429 q0-3.714 2.714-6.429t 6.429-2.714l 457.143,0 q 3.714,0 6.429,2.714t 2.714,6.429l0,347.429  q0,3.714 -2.714,6.429t-6.429,2.714zM 548.571,397.714l0-347.429 q0-18.857 -13.429-32.286t-32.286-13.429l-457.143,0 q-18.857,0 -32.286,13.429t-13.429,32.286l0,347.429 q0,18.857 13.429,32.286t 32.286,13.429l 457.143,0 q 18.857,0 32.286-13.429t 13.429-32.286z" horiz-adv-x="548.571"  />
<glyph unicode="&#xf040;" d="M 103.714,41.143l 26,26l-67.143,67.143l-26-26l0-30.571 l 36.571,0 l0-36.571 l 30.571,0 zM 253.143,306.286q0,6.286 -6.286,6.286q-2.857,0 -4.857-2l-154.857-154.857q-2-2 -2-4.857q0-6.286 6.286-6.286q 2.857,0 4.857,2l 154.857,154.857q 2,2 2,4.857zM 237.714,361.143l 118.857-118.857l-237.714-237.714l-118.857,0 l0,118.857 zM 432.857,333.714q0-15.143 -10.571-25.714l-47.429-47.429l-118.857,118.857l 47.429,47.143q 10.286,10.857 25.714,10.857 q 15.143,0 26-10.857l 67.143-66.857q 10.571-11.143 10.571-26z" horiz-adv-x="438.857"  />
<glyph unicode="&#xf041;" d="M 219.429,297.143q0,30.286 -21.429,51.714t-51.714,21.429t-51.714-21.429t-21.429-51.714t 21.429-51.714t 51.714-21.429t 51.714,21.429t 21.429,51.714zM 292.571,297.143q0-31.143 -9.429-51.143l-104-221.143q-4.571-9.429 -13.571-14.857t-19.286-5.429t-19.286,5.429t-13.286,14.857l-104.286,221.143q-9.429,20 -9.429,51.143q0,60.571 42.857,103.429t 103.429,42.857t 103.429-42.857t 42.857-103.429z" horiz-adv-x="292.571"  />
<glyph unicode="&#xf042;" d="M 219.429,68.571l0,310.857 q-42.286,0 -78-20.857t-56.571-56.571t-20.857-78t 20.857-78t 56.571-56.571t 78-20.857zM 438.857,224q0-59.714 -29.429-110.143t-79.857-79.857t-110.143-29.429t-110.143,29.429t-79.857,79.857t-29.429,110.143t 29.429,110.143t 79.857,79.857t 110.143,29.429t 110.143-29.429t 79.857-79.857t 29.429-110.143z" horiz-adv-x="438.857"  />
<glyph unicode="&#xf043;" d="M 146.286,150.857q0,10.286 -5.714,19.714q-0.286,0.286 -4.429,6.429t-7.286,10.857t-7.143,12.571t-6,14.429q-1.143,4.571 -6,4.571t-6-4.571q-2-6.571 -6-14.429t-7.143-12.571t-7.286-10.857t-4.429-6.429q-5.714-9.429 -5.714-19.714q0-15.143 10.714-25.857t 25.857-10.714t 25.857,10.714t 10.714,25.857zM 292.571,187.429q0-60.571 -42.857-103.429t-103.429-42.857t-103.429,42.857t-42.857,103.429 q0,41.429 23.143,78.571q 1.714,2.571 17.857,25.857t 28.857,43.143t 28.429,50.857t 23.714,57.571q 2.571,8.571 9.714,13.429t 14.571,4.857t 14.714-4.857t 9.571-13.429q 8-26.571 23.714-57.571t 28.429-50.857t 28.857-43.143t 17.857-25.857q 23.143-36.286 23.143-78.571z" horiz-adv-x="292.571"  />
<glyph unicode="&#xf044;" d="M 253.714,141.714l 33.143,33.143l-43.429,43.429l-33.143-33.143l0-16 l 27.429,0 l0-27.429 l 16,0 zM 379.429,347.429q-4.571,4.571 -9.429-0.286l-100-100q-4.857-4.857 -0.286-9.429t 9.429,0.286l 100,100q 4.857,4.857 0.286,9.429zM 402.286,177.714l0-54.286 q0-34 -24.143-58.143t-58.143-24.143l-237.714,0 q-34,0 -58.143,24.143t-24.143,58.143l0,237.714 q0,34 24.143,58.143t 58.143,24.143l 237.714,0  q 18,0 33.429-7.143q 4.286-2 5.143-6.571q 0.857-4.857 -2.571-8.286l-14-14q-4-4 -9.143-2.286q-6.571,1.714 -12.857,1.714l-237.714,0 q-18.857,0 -32.286-13.429t-13.429-32.286l0-237.714 q0-18.857 13.429-32.286t 32.286-13.429l 237.714,0 q 18.857,0 32.286,13.429t 13.429,32.286l0,36 q0,3.714 2.571,6.286l 18.286,18.286q 4.286,4.286 10,2t 5.714-8.286zM 374.857,388.571l 82.286-82.286l-192-192l-82.286,0 l0,82.286 zM 501.714,350.857l-26.286-26.286 l-82.286,82.286l 26.286,26.286q 8,8 19.429,8t 19.429-8l 43.429-43.429q 8-8 8-19.429t-8-19.429z"  />
<glyph unicode="&#xf045;" d="M 402.286,197.429l0-74 q0-34 -24.143-58.143t-58.143-24.143l-237.714,0 q-34,0 -58.143,24.143t-24.143,58.143l0,237.714 q0,34 24.143,58.143t 58.143,24.143l 72.857,0 l0,0 q 3.714,0 6.429-2.714t 2.714-6.429q0-7.714 -7.429-9.143q-22-7.429 -38-17.143q-2.857-1.143 -4.571-1.143l-32,0 q-18.857,0 -32.286-13.429t-13.429-32.286l0-237.714 q0-18.857 13.429-32.286t 32.286-13.429l 237.714,0  q 18.857,0 32.286,13.429t 13.429,32.286l0,61.143 q0,5.429 5.143,8.286q 8,3.714 15.429,10.571q 4.571,4.571 10,2.286q 6-2.571 6-8.286zM 470,339.143l-109.714-109.714q-5.143-5.429 -12.857-5.429q-3.429,0 -7.143,1.429q-11.143,4.857 -11.143,16.857l0,54.857 l-45.714,0 q-92.286,0 -125.143-37.429q-34-39.143 -21.143-135.143q 0.857-6.571 -5.714-9.714q-2.286-0.571 -3.429-0.571q-4.571,0 -7.429,3.714q-2.857,4 -6,8.857t-11.286,19.571t-14.143,28.429 t-11,32.571t-5,34.857q0,14 1,26t 4,25.714t 8,25.143t 13.429,23.286t 19.571,21.143t 27,17.571t 35.571,13.857t 45.571,8.714t 56.143,3.143l 45.714,0 l0,54.857 q0,12 11.143,16.857q 3.714,1.429 7.143,1.429q 7.429,0 12.857-5.429l 109.714-109.714q 5.429-5.429 5.429-12.857t-5.429-12.857z" horiz-adv-x="475.429"  />
<glyph unicode="&#xf046;" d="M 402.286,214.286l0-90.857 q0-34 -24.143-58.143t-58.143-24.143l-237.714,0 q-34,0 -58.143,24.143t-24.143,58.143l0,237.714 q0,34 24.143,58.143t 58.143,24.143l 237.714,0 q 18,0 33.429-7.143q 4.286-2 5.143-6.571q 0.857-4.857 -2.571-8.286l-14-14q-2.857-2.857 -6.571-2.857q-0.857,0 -2.571,0.571q-6.571,1.714 -12.857,1.714l-237.714,0 q-18.857,0 -32.286-13.429t-13.429-32.286l0-237.714  q0-18.857 13.429-32.286t 32.286-13.429l 237.714,0 q 18.857,0 32.286,13.429t 13.429,32.286l0,72.571 q0,3.714 2.571,6.286l 18.286,18.286q 2.857,2.857 6.571,2.857q 1.714,0 3.429-0.857q 5.714-2.286 5.714-8.286zM 468.286,354l-232.571-232.571q-6.857-6.857 -16.286-6.857t-16.286,6.857l-122.857,122.857q-6.857,6.857 -6.857,16.286t 6.857,16.286l 31.429,31.429q 6.857,6.857 16.286,6.857t 16.286-6.857l 75.143-75.143l 184.857,184.857q 6.857,6.857 16.286,6.857t 16.286-6.857l 31.429-31.429 q 6.857-6.857 6.857-16.286t-6.857-16.286z" horiz-adv-x="475.429"  />
<glyph unicode="&#xf047;" d="M 512,224q0-7.429 -5.429-12.857l-73.143-73.143q-5.429-5.429 -12.857-5.429t-12.857,5.429t-5.429,12.857l0,36.571 l-109.714,0 l0-109.714 l 36.571,0 q 7.429,0 12.857-5.429t 5.429-12.857t-5.429-12.857l-73.143-73.143q-5.429-5.429 -12.857-5.429t-12.857,5.429l-73.143,73.143q-5.429,5.429 -5.429,12.857t 5.429,12.857t 12.857,5.429l 36.571,0 l0,109.714 l-109.714,0 l0-36.571 q0-7.429 -5.429-12.857t-12.857-5.429t-12.857,5.429l-73.143,73.143q-5.429,5.429 -5.429,12.857 t 5.429,12.857l 73.143,73.143q 5.429,5.429 12.857,5.429t 12.857-5.429t 5.429-12.857l0-36.571 l 109.714,0 l0,109.714 l-36.571,0 q-7.429,0 -12.857,5.429t-5.429,12.857t 5.429,12.857l 73.143,73.143q 5.429,5.429 12.857,5.429t 12.857-5.429l 73.143-73.143q 5.429-5.429 5.429-12.857t-5.429-12.857t-12.857-5.429l-36.571,0 l0-109.714 l 109.714,0 l0,36.571 q0,7.429 5.429,12.857t 12.857,5.429t 12.857-5.429l 73.143-73.143q 5.429-5.429 5.429-12.857z"  />
<glyph unicode="&#xf048;" d="M 279.714,439.714q 5.429,5.429 9.143,3.714t 3.714-9.143l0-420.571 q0-7.429 -3.714-9.143t-9.143,3.714l-202.857,202.857q-2.571,2.571 -3.714,5.429l0-193.714 q0-7.429 -5.429-12.857t-12.857-5.429l-36.571,0 q-7.429,0 -12.857,5.429t-5.429,12.857l0,402.286 q0,7.429 5.429,12.857t 12.857,5.429l 36.571,0 q 7.429,0 12.857-5.429t 5.429-12.857l0-193.714 q 1.143,3.143 3.714,5.429z" horiz-adv-x="292.571"  />
<glyph unicode="&#xf049;" d="M 499.143,439.714q 5.429,5.429 9.143,3.714t 3.714-9.143l0-420.571 q0-7.429 -3.714-9.143t-9.143,3.714l-202.857,202.857q-2.571,2.571 -3.714,5.429l0-202.857 q0-7.429 -3.714-9.143t-9.143,3.714l-202.857,202.857q-2.571,2.571 -3.714,5.429l0-193.714 q0-7.429 -5.429-12.857t-12.857-5.429l-36.571,0 q-7.429,0 -12.857,5.429t-5.429,12.857l0,402.286 q0,7.429 5.429,12.857t 12.857,5.429l 36.571,0 q 7.429,0 12.857-5.429t 5.429-12.857l0-193.714 q 1.143,3.143 3.714,5.429l 202.857,202.857 q 5.429,5.429 9.143,3.714t 3.714-9.143l0-202.857 q 1.143,3.143 3.714,5.429z"  />
<glyph unicode="&#xf04a;" d="M 462.571,439.714q 5.429,5.429 9.143,3.714t 3.714-9.143l0-420.571 q0-7.429 -3.714-9.143t-9.143,3.714l-202.857,202.857q-2.286,2.571 -3.714,5.429l0-202.857 q0-7.429 -3.714-9.143t-9.143,3.714l-202.857,202.857q-5.429,5.429 -5.429,12.857t 5.429,12.857l 202.857,202.857q 5.429,5.429 9.143,3.714t 3.714-9.143l0-202.857 q 1.429,3.143 3.714,5.429z" horiz-adv-x="475.429"  />
<glyph unicode="&#xf04b;" d="M 395.429,215.143l-379.429-210.857q-6.571-3.714 -11.286-0.857t-4.714,10.286l0,420.571 q0,7.429 4.714,10.286t 11.286-0.857l 379.429-210.857q 6.571-3.714 6.571-8.857t-6.571-8.857z" horiz-adv-x="402.286"  />
<glyph unicode="&#xf04c;" d="M 438.857,425.143l0-402.286 q0-7.429 -5.429-12.857t-12.857-5.429l-146.286,0 q-7.429,0 -12.857,5.429t-5.429,12.857l0,402.286 q0,7.429 5.429,12.857t 12.857,5.429l 146.286,0 q 7.429,0 12.857-5.429t 5.429-12.857zM 182.857,425.143l0-402.286 q0-7.429 -5.429-12.857t-12.857-5.429l-146.286,0 q-7.429,0 -12.857,5.429t-5.429,12.857l0,402.286 q0,7.429 5.429,12.857t 12.857,5.429l 146.286,0 q 7.429,0 12.857-5.429t 5.429-12.857z" horiz-adv-x="438.857"  />
<glyph unicode="&#xf04d;" d="M 438.857,425.143l0-402.286 q0-7.429 -5.429-12.857t-12.857-5.429l-402.286,0 q-7.429,0 -12.857,5.429t-5.429,12.857l0,402.286 q0,7.429 5.429,12.857t 12.857,5.429l 402.286,0 q 7.429,0 12.857-5.429t 5.429-12.857z" horiz-adv-x="438.857"  />
<glyph unicode="&#xf04e;" d="M 12.857,8.286q-5.429-5.429 -9.143-3.714t-3.714,9.143l0,420.571 q0,7.429 3.714,9.143t 9.143-3.714l 202.857-202.857q 2.286-2.286 3.714-5.429l0,202.857 q0,7.429 3.714,9.143t 9.143-3.714l 202.857-202.857q 5.429-5.429 5.429-12.857t-5.429-12.857l-202.857-202.857q-5.429-5.429 -9.143-3.714t-3.714,9.143l0,202.857 q-1.429-2.857 -3.714-5.429z" horiz-adv-x="475.429"  />
<glyph unicode="&#xf050;" d="M 12.857,8.286q-5.429-5.429 -9.143-3.714t-3.714,9.143l0,420.571 q0,7.429 3.714,9.143t 9.143-3.714l 202.857-202.857q 2.286-2.286 3.714-5.429l0,202.857 q0,7.429 3.714,9.143t 9.143-3.714l 202.857-202.857q 2.286-2.286 3.714-5.429l0,193.714 q0,7.429 5.429,12.857t 12.857,5.429l 36.571,0 q 7.429,0 12.857-5.429t 5.429-12.857l0-402.286 q0-7.429 -5.429-12.857t-12.857-5.429l-36.571,0 q-7.429,0 -12.857,5.429t-5.429,12.857l0,193.714 q-1.429-2.857 -3.714-5.429l-202.857-202.857 q-5.429-5.429 -9.143-3.714t-3.714,9.143l0,202.857 q-1.429-2.857 -3.714-5.429z"  />
<glyph unicode="&#xf051;" d="M 12.857,8.286q-5.429-5.429 -9.143-3.714t-3.714,9.143l0,420.571 q0,7.429 3.714,9.143t 9.143-3.714l 202.857-202.857q 2.286-2.286 3.714-5.429l0,193.714 q0,7.429 5.429,12.857t 12.857,5.429l 36.571,0 q 7.429,0 12.857-5.429t 5.429-12.857l0-402.286 q0-7.429 -5.429-12.857t-12.857-5.429l-36.571,0 q-7.429,0 -12.857,5.429t-5.429,12.857l0,193.714 q-1.429-2.857 -3.714-5.429z" horiz-adv-x="292.571"  />
<glyph unicode="&#xf052;" d="M 4,200.286l 202.857,202.857q 5.429,5.429 12.857,5.429t 12.857-5.429l 202.857-202.857q 5.429-5.429 3.714-9.143t-9.143-3.714l-420.571,0 q-7.429,0 -9.143,3.714t 3.714,9.143zM 420.857,41.143l-402.286,0 q-7.429,0 -12.857,5.429t-5.429,12.857l0,73.143 q0,7.429 5.429,12.857t 12.857,5.429l 402.286,0 q 7.429,0 12.857-5.429t 5.429-12.857l0-73.143 q0-7.429 -5.429-12.857t-12.857-5.429z" horiz-adv-x="439.429"  />
<glyph unicode="&#xf053;" d="M 212,30.571l-186.286,186q-10.571,10.571 -10.571,25.857t 10.571,25.857l 186.286,186q 10.571,10.571 25.857,10.571t 25.857-10.571l 21.429-21.429q 10.571-10.571 10.571-25.857t-10.571-25.857l-138.857-138.857l 138.857-138.571q 10.571-10.857 10.571-26t-10.571-25.714l-21.429-21.429q-10.571-10.571 -25.857-10.571t-25.857,10.571z" horiz-adv-x="329.143"  />
<glyph unicode="&#xf054;" d="M 314,242.286q0-14.857 -10.571-26l-186.286-186q-10.571-10.571 -25.714-10.571t-25.714,10.571l-21.714,21.429q-10.571,11.143 -10.571,26q0,15.143 10.571,25.714l 138.857,138.857l-138.857,138.571q-10.571,11.143 -10.571,26q0,15.143 10.571,25.714l 21.714,21.429q 10.286,10.857 25.714,10.857t 25.714-10.857l 186.286-186q 10.571-10.571 10.571-25.714z" horiz-adv-x="329.143"  />
<glyph unicode="&#xf055;" d="M 347.429,205.714l0,36.571 q0,7.429 -5.429,12.857t-12.857,5.429l-73.143,0 l0,73.143 q0,7.429 -5.429,12.857t-12.857,5.429l-36.571,0 q-7.429,0 -12.857-5.429t-5.429-12.857l0-73.143 l-73.143,0 q-7.429,0 -12.857-5.429t-5.429-12.857l0-36.571 q0-7.429 5.429-12.857t 12.857-5.429l 73.143,0 l0-73.143 q0-7.429 5.429-12.857t 12.857-5.429l 36.571,0 q 7.429,0 12.857,5.429t 5.429,12.857l0,73.143 l 73.143,0 q 7.429,0 12.857,5.429t 5.429,12.857zM 438.857,224q0-59.714 -29.429-110.143 t-79.857-79.857t-110.143-29.429t-110.143,29.429t-79.857,79.857t-29.429,110.143t 29.429,110.143t 79.857,79.857t 110.143,29.429t 110.143-29.429t 79.857-79.857t 29.429-110.143z" horiz-adv-x="438.857"  />
<glyph unicode="&#xf056;" d="M 347.429,205.714l0,36.571 q0,7.429 -5.429,12.857t-12.857,5.429l-219.429,0 q-7.429,0 -12.857-5.429t-5.429-12.857l0-36.571 q0-7.429 5.429-12.857t 12.857-5.429l 219.429,0 q 7.429,0 12.857,5.429t 5.429,12.857zM 438.857,224q0-59.714 -29.429-110.143t-79.857-79.857t-110.143-29.429t-110.143,29.429t-79.857,79.857t-29.429,110.143t 29.429,110.143t 79.857,79.857t 110.143,29.429t 110.143-29.429t 79.857-79.857 t 29.429-110.143z" horiz-adv-x="438.857"  />
<glyph unicode="&#xf057;" d="M 328.286,159.429q0,7.429 -5.429,12.857l-51.714,51.714l 51.714,51.714q 5.429,5.429 5.429,12.857q0,7.714 -5.429,13.143l-25.714,25.714q-5.429,5.429 -13.143,5.429q-7.429,0 -12.857-5.429l-51.714-51.714l-51.714,51.714q-5.429,5.429 -12.857,5.429q-7.714,0 -13.143-5.429l-25.714-25.714q-5.429-5.429 -5.429-13.143q0-7.429 5.429-12.857l 51.714-51.714l-51.714-51.714q-5.429-5.429 -5.429-12.857q0-7.714 5.429-13.143l 25.714-25.714q 5.429-5.429 13.143-5.429 q 7.429,0 12.857,5.429l 51.714,51.714l 51.714-51.714q 5.429-5.429 12.857-5.429q 7.714,0 13.143,5.429l 25.714,25.714q 5.429,5.429 5.429,13.143zM 438.857,224q0-59.714 -29.429-110.143t-79.857-79.857t-110.143-29.429t-110.143,29.429t-79.857,79.857t-29.429,110.143t 29.429,110.143t 79.857,79.857t 110.143,29.429t 110.143-29.429t 79.857-79.857t 29.429-110.143z" horiz-adv-x="438.857"  />
<glyph unicode="&#xf058;" d="M 366.857,270.286q0,8 -5.143,13.143l-26,25.714q-5.429,5.429 -12.857,5.429t-12.857-5.429l-116.571-116.286l-64.571,64.571q-5.429,5.429 -12.857,5.429t-12.857-5.429l-26-25.714q-5.143-5.143 -5.143-13.143q0-7.714 5.143-12.857l 103.429-103.429q 5.429-5.429 12.857-5.429q 7.714,0 13.143,5.429l 155.143,155.143q 5.143,5.143 5.143,12.857zM 438.857,224q0-59.714 -29.429-110.143t-79.857-79.857t-110.143-29.429t-110.143,29.429 t-79.857,79.857t-29.429,110.143t 29.429,110.143t 79.857,79.857t 110.143,29.429t 110.143-29.429t 79.857-79.857t 29.429-110.143z" horiz-adv-x="438.857"  />
<glyph unicode="&#xf059;" d="M 256,86.857l0,54.857 q0,4 -2.571,6.571t-6.571,2.571l-54.857,0 q-4,0 -6.571-2.571t-2.571-6.571l0-54.857 q0-4 2.571-6.571t 6.571-2.571l 54.857,0 q 4,0 6.571,2.571t 2.571,6.571zM 329.143,278.857q0,25.143 -15.857,46.571t-39.571,33.143t-48.571,11.714q-69.429,0 -106-60.857q-4.286-6.857 2.286-12l 37.714-28.571q 2-1.714 5.429-1.714q 4.571,0 7.143,3.429q 15.143,19.429 24.571,26.286q 9.714,6.857 24.571,6.857q 13.714,0 24.429-7.429t 10.714-16.857 q0-10.857 -5.714-17.429t-19.429-12.857q-18-8 -33-24.714t-15-35.857l0-10.286 q0-4 2.571-6.571t 6.571-2.571l 54.857,0 q 4,0 6.571,2.571t 2.571,6.571q0,5.429 6.143,14.143t 15.571,14.143q 9.143,5.143 14,8.143t 13.143,10t 12.714,13.714t 8,17.286t 3.571,23.143zM 438.857,224q0-59.714 -29.429-110.143t-79.857-79.857t-110.143-29.429t-110.143,29.429t-79.857,79.857 t-29.429,110.143t 29.429,110.143t 79.857,79.857t 110.143,29.429t 110.143-29.429t 79.857-79.857t 29.429-110.143z" horiz-adv-x="438.857"  />
<glyph unicode="&#xf05a;" d="M 292.571,86.857l0,45.714 q0,4 -2.571,6.571t-6.571,2.571l-27.429,0 l0,146.286 q0,4 -2.571,6.571t-6.571,2.571l-91.429,0 q-4,0 -6.571-2.571t-2.571-6.571l0-45.714 q0-4 2.571-6.571t 6.571-2.571l 27.429,0 l0-91.429 l-27.429,0 q-4,0 -6.571-2.571t-2.571-6.571l0-45.714 q0-4 2.571-6.571t 6.571-2.571l 128,0 q 4,0 6.571,2.571t 2.571,6.571zM 256,342.857l0,45.714 q0,4 -2.571,6.571t-6.571,2.571l-54.857,0 q-4,0 -6.571-2.571t-2.571-6.571l0-45.714 q0-4 2.571-6.571 t 6.571-2.571l 54.857,0 q 4,0 6.571,2.571t 2.571,6.571zM 438.857,224q0-59.714 -29.429-110.143t-79.857-79.857t-110.143-29.429t-110.143,29.429t-79.857,79.857t-29.429,110.143t 29.429,110.143t 79.857,79.857t 110.143,29.429t 110.143-29.429t 79.857-79.857t 29.429-110.143z" horiz-adv-x="438.857"  />
<glyph unicode="&#xf05b;" d="M 342,187.429l-31.143,0 q-7.429,0 -12.857,5.429t-5.429,12.857l0,36.571 q0,7.429 5.429,12.857t 12.857,5.429l 31.143,0 q-9.143,30.857 -32.143,53.857t-53.857,32.143l0-31.143 q0-7.429 -5.429-12.857t-12.857-5.429l-36.571,0 q-7.429,0 -12.857,5.429t-5.429,12.857l0,31.143 q-30.857-9.143 -53.857-32.143t-32.143-53.857l 31.143,0 q 7.429,0 12.857-5.429t 5.429-12.857l0-36.571 q0-7.429 -5.429-12.857t-12.857-5.429l-31.143,0  q 9.143-30.857 32.143-53.857t 53.857-32.143l0,31.143 q0,7.429 5.429,12.857t 12.857,5.429l 36.571,0 q 7.429,0 12.857-5.429t 5.429-12.857l0-31.143 q 30.857,9.143 53.857,32.143t 32.143,53.857zM 438.857,242.286l0-36.571 q0-7.429 -5.429-12.857t-12.857-5.429l-40.857,0 q-10.571-46 -44.143-79.571t-79.571-44.143l0-40.857 q0-7.429 -5.429-12.857t-12.857-5.429l-36.571,0 q-7.429,0 -12.857,5.429t-5.429,12.857l0,40.857  q-46,10.571 -79.571,44.143t-44.143,79.571l-40.857,0 q-7.429,0 -12.857,5.429t-5.429,12.857l0,36.571 q0,7.429 5.429,12.857t 12.857,5.429l 40.857,0 q 10.571,46 44.143,79.571t 79.571,44.143l0,40.857 q0,7.429 5.429,12.857t 12.857,5.429l 36.571,0 q 7.429,0 12.857-5.429t 5.429-12.857l0-40.857 q 46-10.571 79.571-44.143t 44.143-79.571l 40.857,0 q 7.429,0 12.857-5.429t 5.429-12.857z" horiz-adv-x="438.857"  />
<glyph unicode="&#xf05c;" d="M 313.429,171.714l-41.714-41.714q-2.857-2.857 -6.571-2.857t-6.571,2.857l-39.143,39.143l-39.143-39.143q-2.857-2.857 -6.571-2.857t-6.571,2.857l-41.714,41.714q-2.857,2.857 -2.857,6.571t 2.857,6.571l 39.143,39.143l-39.143,39.143q-2.857,2.857 -2.857,6.571t 2.857,6.571l 41.714,41.714q 2.857,2.857 6.571,2.857t 6.571-2.857l 39.143-39.143l 39.143,39.143q 2.857,2.857 6.571,2.857t 6.571-2.857l 41.714-41.714q 2.857-2.857 2.857-6.571t-2.857-6.571 l-39.143-39.143l 39.143-39.143q 2.857-2.857 2.857-6.571t-2.857-6.571zM 374.857,224q0,42.286 -20.857,78t-56.571,56.571t-78,20.857t-78-20.857t-56.571-56.571t-20.857-78t 20.857-78t 56.571-56.571t 78-20.857t 78,20.857t 56.571,56.571t 20.857,78zM 438.857,224q0-59.714 -29.429-110.143t-79.857-79.857t-110.143-29.429t-110.143,29.429t-79.857,79.857t-29.429,110.143 t 29.429,110.143t 79.857,79.857t 110.143,29.429t 110.143-29.429t 79.857-79.857t 29.429-110.143z" horiz-adv-x="438.857"  />
<glyph unicode="&#xf05d;" d="M 334.571,247.714l-120.571-120.571q-5.429-5.429 -12.857-5.429t-12.857,5.429l-84,84q-5.429,5.429 -5.429,12.857t 5.429,12.857l 29.143,29.143q 5.429,5.429 12.857,5.429t 12.857-5.429l 42-42l 78.571,78.571q 5.429,5.429 12.857,5.429t 12.857-5.429l 29.143-29.143q 5.429-5.429 5.429-12.857t-5.429-12.857zM 374.857,224q0,42.286 -20.857,78t-56.571,56.571t-78,20.857t-78-20.857t-56.571-56.571t-20.857-78t 20.857-78t 56.571-56.571 t 78-20.857t 78,20.857t 56.571,56.571t 20.857,78zM 438.857,224q0-59.714 -29.429-110.143t-79.857-79.857t-110.143-29.429t-110.143,29.429t-79.857,79.857t-29.429,110.143t 29.429,110.143t 79.857,79.857t 110.143,29.429t 110.143-29.429t 79.857-79.857t 29.429-110.143z" horiz-adv-x="438.857"  />
<glyph unicode="&#xf05e;" d="M 374.857,224.857q0,46 -24.857,84.286l-215.429-215.143q 39.143-25.429 84.857-25.429q 31.714,0 60.429,12.429t 49.571,33.286t 33.143,49.857t 12.286,60.714zM 89.429,139.429l 215.714,215.429q-38.571,26 -85.714,26q-42.286,0 -78-20.857t-56.571-56.857t-20.857-78.286q0-46.286 25.429-85.429zM 438.857,224.857q0-44.857 -17.429-85.714t-46.714-70.286t-70-46.857t-85.286-17.429t-85.286,17.429 t-70,46.857t-46.714,70.286t-17.429,85.714t 17.429,85.571t 46.714,70.143t 70,46.857t 85.286,17.429t 85.286-17.429t 70-46.857t 46.714-70.143t 17.429-85.571z" horiz-adv-x="438.857"  />
<glyph unicode="&#xf060;" d="M 438.857,224l0-36.571 q0-15.143 -9.286-25.857t-24.143-10.714l-201.143,0 l 83.714-84q 10.857-10.286 10.857-25.714t-10.857-25.714l-21.429-21.714q-10.571-10.571 -25.714-10.571q-14.857,0 -26,10.571l-186,186.286q-10.571,10.571 -10.571,25.714q0,14.857 10.571,26l 186,185.714q 10.857,10.857 26,10.857q 14.857,0 25.714-10.857l 21.429-21.143q 10.857-10.857 10.857-26t-10.857-26l-83.714-83.714l 201.143,0 q 14.857,0 24.143-10.714 t 9.286-25.857z" horiz-adv-x="438.857"  />
<glyph unicode="&#xf061;" d="M 420.571,205.714q0-15.429 -10.571-26l-186-186q-11.143-10.571 -26-10.571q-14.571,0 -25.714,10.571l-21.429,21.429q-10.857,10.857 -10.857,26t 10.857,26l 83.714,83.714l-201.143,0 q-14.857,0 -24.143,10.714t-9.286,25.857l0,36.571 q0,15.143 9.286,25.857t 24.143,10.714l 201.143,0 l-83.714,84q-10.857,10.286 -10.857,25.714t 10.857,25.714l 21.429,21.429q 10.857,10.857 25.714,10.857q 15.143,0 26-10.857l 186-186q 10.571-10 10.571-25.714z" horiz-adv-x="438.857"  />
<glyph unicode="&#xf062;" d="M 460.286,202.571q0-14.571 -10.571-25.714l-21.429-21.429q-10.857-10.857 -26-10.857q-15.429,0 -25.714,10.857l-84,83.714l0-201.143 q0-14.857 -10.714-24.143t-25.857-9.286l-36.571,0 q-15.143,0 -25.857,9.286t-10.714,24.143l0,201.143 l-84-83.714q-10.286-10.857 -25.714-10.857t-25.714,10.857l-21.429,21.429q-10.857,10.857 -10.857,25.714q0,15.143 10.857,26l 186,186q 10,10.571 25.714,10.571q 15.429,0 26-10.571l 186-186 q 10.571-11.143 10.571-26z" horiz-adv-x="475.429"  />
<glyph unicode="&#xf063;" d="M 460.286,242.286q0-15.143 -10.571-25.714l-186-186.286q-11.143-10.571 -26-10.571q-15.143,0 -25.714,10.571l-186,186.286q-10.857,10.286 -10.857,25.714q0,15.143 10.857,26l 21.143,21.429q 11.143,10.571 26,10.571q 15.143,0 25.714-10.571l 84-84l0,201.143 q0,14.857 10.857,25.714t 25.714,10.857l 36.571,0 q 14.857,0 25.714-10.857t 10.857-25.714l0-201.143 l 84,84q 10.571,10.571 25.714,10.571q 14.857,0 26-10.571l 21.429-21.429q 10.571-11.143 10.571-26z" horiz-adv-x="475.429"  />
<glyph unicode="&#xf064;" d="M 512,297.143q0-7.429 -5.429-12.857l-146.286-146.286q-5.429-5.429 -12.857-5.429t-12.857,5.429t-5.429,12.857l0,73.143 l-64,0 q-28,0 -50.143-1.714t-44-6.143t-38-12.143t-30.143-19.857t-22.857-28.857t-13.857-39.571t-5-51.714q0-15.714 1.429-35.143q0-1.714 0.714-6.714t 0.714-7.571q0-4.286 -2.429-7.143t-6.714-2.857q-4.571,0 -8,4.857q-2,2.571 -3.714,6.286 t-3.857,8.571t-3,6.857q-36.286,81.429 -36.286,128.857q0,56.857 15.143,95.143q 46.286,115.143 250,115.143l 64,0 l0,73.143 q0,7.429 5.429,12.857t 12.857,5.429t 12.857-5.429l 146.286-146.286q 5.429-5.429 5.429-12.857z"  />
<glyph unicode="&#xf065;" d="M 215.714,178.286q0-3.714 -2.857-6.571l-94.857-94.857l 41.143-41.143q 5.429-5.429 5.429-12.857t-5.429-12.857t-12.857-5.429l-128,0 q-7.429,0 -12.857,5.429t-5.429,12.857l0,128 q0,7.429 5.429,12.857t 12.857,5.429t 12.857-5.429l 41.143-41.143l 94.857,94.857q 2.857,2.857 6.571,2.857t 6.571-2.857l 32.571-32.571q 2.857-2.857 2.857-6.571zM 438.857,425.143l0-128 q0-7.429 -5.429-12.857t-12.857-5.429t-12.857,5.429l-41.143,41.143l-94.857-94.857 q-2.857-2.857 -6.571-2.857t-6.571,2.857l-32.571,32.571q-2.857,2.857 -2.857,6.571t 2.857,6.571l 94.857,94.857l-41.143,41.143q-5.429,5.429 -5.429,12.857t 5.429,12.857t 12.857,5.429l 128,0 q 7.429,0 12.857-5.429t 5.429-12.857z" horiz-adv-x="438.857"  />
<glyph unicode="&#xf066;" d="M 219.429,205.714l0-128 q0-7.429 -5.429-12.857t-12.857-5.429t-12.857,5.429l-41.143,41.143l-94.857-94.857q-2.857-2.857 -6.571-2.857t-6.571,2.857l-32.571,32.571q-2.857,2.857 -2.857,6.571t 2.857,6.571l 94.857,94.857l-41.143,41.143q-5.429,5.429 -5.429,12.857t 5.429,12.857t 12.857,5.429l 128,0 q 7.429,0 12.857-5.429t 5.429-12.857zM 435.143,397.714q0-3.714 -2.857-6.571l-94.857-94.857l 41.143-41.143q 5.429-5.429 5.429-12.857t-5.429-12.857 t-12.857-5.429l-128,0 q-7.429,0 -12.857,5.429t-5.429,12.857l0,128 q0,7.429 5.429,12.857t 12.857,5.429t 12.857-5.429l 41.143-41.143l 94.857,94.857q 2.857,2.857 6.571,2.857t 6.571-2.857l 32.571-32.571q 2.857-2.857 2.857-6.571z" horiz-adv-x="438.857"  />
<glyph unicode="&#xf067;" d="M 402.286,269.714l0-54.857 q0-11.429 -8-19.429t-19.429-8l-118.857,0 l0-118.857 q0-11.429 -8-19.429t-19.429-8l-54.857,0 q-11.429,0 -19.429,8t-8,19.429l0,118.857 l-118.857,0 q-11.429,0 -19.429,8t-8,19.429l0,54.857 q0,11.429 8,19.429t 19.429,8l 118.857,0 l0,118.857 q0,11.429 8,19.429t 19.429,8l 54.857,0 q 11.429,0 19.429-8t 8-19.429l0-118.857 l 118.857,0 q 11.429,0 19.429-8t 8-19.429z" horiz-adv-x="402.286"  />
<glyph unicode="&#xf068;" d="M 402.286,269.714l0-54.857 q0-11.429 -8-19.429t-19.429-8l-347.429,0 q-11.429,0 -19.429,8t-8,19.429l0,54.857 q0,11.429 8,19.429t 19.429,8l 347.429,0 q 11.429,0 19.429-8t 8-19.429z" horiz-adv-x="402.286"  />
<glyph unicode="&#xf069;" d="M 423.429,180q 13.143-7.429 17-22.143t-3.571-27.857l-18.286-31.429q-7.429-13.143 -22.143-17t-27.857,3.571l-76,43.714l0-87.714 q0-14.857 -10.857-25.714t-25.714-10.857l-36.571,0 q-14.857,0 -25.714,10.857t-10.857,25.714l0,87.714 l-76-43.714q-13.143-7.429 -27.857-3.571t-22.143,17l-18.286,31.429q-7.429,13.143 -3.571,27.857t 17,22.143l 76,44l-76,44 q-13.143,7.429 -17,22.143t 3.571,27.857l 18.286,31.429q 7.429,13.143 22.143,17t 27.857-3.571l 76-43.714l0,87.714 q0,14.857 10.857,25.714t 25.714,10.857l 36.571,0 q 14.857,0 25.714-10.857t 10.857-25.714l0-87.714 l 76,43.714q 13.143,7.429 27.857,3.571t 22.143-17l 18.286-31.429q 7.429-13.143 3.571-27.857t-17-22.143l-76-44z" horiz-adv-x="475.429"  />
<glyph unicode="&#xf06a;" d="M 219.429,443.429q 59.714,0 110.143-29.429t 79.857-79.857t 29.429-110.143t-29.429-110.143t-79.857-79.857t-110.143-29.429t-110.143,29.429t-79.857,79.857t-29.429,110.143t 29.429,110.143t 79.857,79.857t 110.143,29.429zM 256,87.143l0,54.286 q0,4 -2.571,6.714t-6.286,2.714l-54.857,0 q-3.714,0 -6.571-2.857t-2.857-6.571l0-54.286 q0-3.714 2.857-6.571t 6.571-2.857l 54.857,0  q 3.714,0 6.286,2.714t 2.571,6.714zM 255.429,185.429l 5.143,177.429q0,3.429 -2.857,5.143q-2.857,2.286 -6.857,2.286l-62.857,0 q-4,0 -6.857-2.286q-2.857-1.714 -2.857-5.143l 4.857-177.429q0-2.857 2.857-5t 6.857-2.143l 52.857,0 q 4,0 6.714,2.143t 3,5z" horiz-adv-x="438.857"  />
<glyph unicode="&#xf06b;" d="M 265.143,92.571l0,16 l0,133.714 l0,54.857 l-91.429,0 l0-54.857 l0-133.714 l0-16 q0-7.143 5.143-11t 13.143-3.857l 54.857,0 q 8,0 13.143,3.857t 5.143,11zM 134.857,333.714l 55.714,0 l-36,46q-7.429,8.857 -19.714,8.857q-11.429,0 -19.429-8t-8-19.429t 8-19.429t 19.429-8zM 331.429,361.143q0,11.429 -8,19.429t-19.429,8q-12.286,0 -19.714-8.857l-35.714-46l 55.429,0 q 11.429,0 19.429,8t 8,19.429zM 438.857,288l0-91.429  q0-4 -2.571-6.571t-6.571-2.571l-27.429,0 l0-118.857 q0-11.429 -8-19.429t-19.429-8l-310.857,0 q-11.429,0 -19.429,8t-8,19.429l0,118.857 l-27.429,0 q-4,0 -6.571,2.571t-2.571,6.571l0,91.429 q0,4 2.571,6.571t 6.571,2.571l 125.714,0 q-26.571,0 -45.286,18.714t-18.714,45.286t 18.714,45.286t 45.286,18.714q 30.571,0 48-22l 36.571-47.143l 36.571,47.143q 17.429,22 48,22q 26.571,0 45.286-18.714t 18.714-45.286 t-18.714-45.286t-45.286-18.714l 125.714,0 q 4,0 6.571-2.571t 2.571-6.571z" horiz-adv-x="438.857"  />
<glyph unicode="&#xf06c;" d="M 365.714,278.857q0,7.429 -5.429,12.857t-12.857,5.429q-49.143,0 -90.857-14.143t-74.143-38.286t-67.286-62.714q-5.429-6 -5.429-12.857q0-7.429 5.429-12.857t 12.857-5.429q 6.857,0 12.857,5.429q 7.714,6.857 21.143,20.286t 19.143,18.857q 39.143,35.429 76.714,50.286t 89.571,14.857q 7.429,0 12.857,5.429t 5.429,12.857zM 512,335.429q0-27.143 -5.714-55.143q-13.143-64 -52.714-109.429t-102.143-76.571 q-61.143-30.857 -125.143-30.857q-42.286,0 -81.714,13.429q-4.286,1.429 -25.143,12t-27.429,10.571q-4.571,0 -11.286-9.143t-12.857-20t-15-20t-17.143-9.143q-8.571,0 -14.571,3.143t-8.857,6.857t-7.714,12q-0.571,1.143 -1.714,3.143t-1.571,2.857t-0.857,2.714t-0.429,3.857q0,10 8.857,21t 19.429,18.714t 19.429,16t 8.857,13.714q0,1.143 -4,10.857t-4.571,12.571q-2.571,14.571 -2.571,29.714q0,32.857 12.429,62.857t 34,52.714 t 48.714,39.714t 58.286,27.286q 15.714,5.143 41.429,7.286t 51.286,2.571t 51,1.714t 46.714,6.857t 32.429,16.143l 8.429,8.429t 8.429,8t 7.714,5.714t 10.429,4.571t 12.429,1.286q 11.143,0 20.143-13.143t 13.571-32t 6.857-35.429t 2.286-27.429z"  />
<glyph unicode="&#xf06d;" d="M 402.286-4.571l0-18.286 q0-3.714 -2.714-6.429t-6.429-2.714l-384,0 q-3.714,0 -6.429,2.714t-2.714,6.429l0,18.286 q0,3.714 2.714,6.429t 6.429,2.714l 384,0 q 3.714,0 6.429-2.714t 2.714-6.429zM 329.143,297.143q0-22.286 -7-41.143t-18.286-32.143t-25-25.143t-27.429-22.143t-25-20.571t-18.286-23.286t-7-27.571q0-27.429 19.143-64l-1.143,0.286l 0.286-0.286 q-25.714,11.714 -45.714,23.714t-39.571,28.571t-32.429,35t-20.714,43t-7.857,52.571q0,22.286 7,41.143t 18.286,32.143t 25,25.143t 27.429,22.143t 25,20.571t 18.286,23.286t 7,27.571q0,26.857 -18.857,64l 0.857-0.286l-0.286,0.286q 25.714-11.714 45.714-23.714t 39.571-28.571t 32.429-35t 20.714-43t 7.857-52.571z" horiz-adv-x="402.286"  />
<glyph unicode="&#xf06e;" d="M 475.429,205.714q-43.429,67.429 -108.857,100.857q 17.429-29.714 17.429-64.286q0-52.857 -37.571-90.429t-90.429-37.571t-90.429,37.571t-37.571,90.429q0,34.571 17.429,64.286q-65.429-33.429 -108.857-100.857q 38-58.571 95.286-93.286t 124.143-34.714t 124.143,34.714t 95.286,93.286zM 269.714,315.429q0,5.714 -4,9.714t-9.714,4q-35.714,0 -61.286-25.571 t-25.571-61.286q0-5.714 4-9.714t 9.714-4t 9.714,4t 4,9.714q0,24.571 17.429,42t 42,17.429q 5.714,0 9.714,4t 4,9.714zM 512,205.714q0-9.714 -5.714-19.714q-40-65.714 -107.571-105.286t-142.714-39.571t-142.714,39.714t-107.571,105.143q-5.714,10 -5.714,19.714t 5.714,19.714q 40,65.429 107.571,105.143t 142.714,39.714t 142.714-39.714t 107.571-105.143q 5.714-10 5.714-19.714z"  />
<glyph unicode="&#xf070;" d="M 158.571,98.571l 22.286,40.286q-24.857,18 -38.857,45.429t-14,58q0,34.571 17.429,64.286q-65.429-33.429 -108.857-100.857q 47.714-73.714 122-107.143zM 269.714,315.429q0,5.714 -4,9.714t-9.714,4q-35.714,0 -61.286-25.571t-25.571-61.286q0-5.714 4-9.714t 9.714-4t 9.714,4t 4,9.714q0,24.571 17.429,42t 42,17.429q 5.714,0 9.714,4t 4,9.714zM 373.429,370q0-2 -0.286-2.571 q-30-53.714 -90-161.714t-90.286-162l-14-25.429q-2.857-4.571 -8-4.571q-3.429,0 -38.286,20q-4.571,2.857 -4.571,8q0,3.429 12.571,24.857q-40.857,18.571 -75.286,49.429t-59.571,70q-5.714,8.857 -5.714,19.714t 5.714,19.714q 43.714,67.143 108.571,106t 141.714,38.857q 25.429,0 51.429-4.857l 15.429,27.714q 2.857,4.571 8,4.571q 1.429,0 5.143-1.714t 8.857-4.429t 9.429-5.286t 9-5.286t 5.571-3.286 q 4.571-2.857 4.571-7.714zM 384,242.286q0-39.714 -22.571-72.429t-59.714-47l 80,143.429q 2.286-12.857 2.286-24zM 512,205.714q0-10 -5.714-19.714q-11.143-18.286 -31.143-41.429q-42.857-49.143 -99.286-76.286t-119.857-27.143l 21.143,37.714q 60.571,5.143 112.143,39.143t 86.143,87.714q-32.857,51.143 -80.571,84l 18,32q 27.143-18.286 52.143-43.714t 41.286-52.571q 5.714-9.714 5.714-19.714z "  />
<glyph unicode="&#xf071;" d="M 292.571,87.143l0,54.286 q0,4 -2.714,6.714t-6.429,2.714l-54.857,0 q-3.714,0 -6.429-2.714t-2.714-6.714l0-54.286 q0-4 2.714-6.714t 6.429-2.714l 54.857,0 q 3.714,0 6.429,2.714t 2.714,6.714zM 292,194l 5.143,131.143q0,3.429 -2.857,5.429q-3.714,3.143 -6.857,3.143l-62.857,0 q-3.143,0 -6.857-3.143q-2.857-2 -2.857-6l 4.857-130.571q0-2.857 2.857-4.714t 6.857-1.857l 52.857,0  q 4,0 6.714,1.857t 3,4.714zM 288,460.857l 219.429-402.286q 10-18 -0.571-36q-4.857-8.286 -13.286-13.143t-18.143-4.857l-438.857,0 q-9.714,0 -18.143,4.857t-13.286,13.143q-10.571,18 -0.571,36l 219.429,402.286q 4.857,8.857 13.429,14t 18.571,5.143t 18.571-5.143t 13.429-14z"  />
<glyph unicode="&#xf072;" d="M 393.143,434.286q 12.571-14.857 3.429-42.286t-30.857-49.143l-46-46l 45.714-198.857q 1.429-5.429 -3.429-9.429l-36.571-27.429q-2-1.714 -5.429-1.714q-1.143,0 -2,0.286q-4.286,0.857 -6,4.571l-79.714,145.143l-74-74l 15.143-55.429q 1.429-4.857 -2.286-8.857l-27.429-27.429q-2.571-2.571 -6.571-2.571l-0.571,0 q-4.286,0.571 -6.857,3.714l-54,72l-72,54q-3.143,2 -3.714,6.571q-0.286,3.714 2.571,7.143l 27.429,27.714q 2.571,2.571 6.571,2.571 q 1.714,0 2.286-0.286l 55.429-15.143l 74,74l-145.143,79.714q-4,2.286 -4.857,6.857q-0.571,4.571 2.571,7.714l 36.571,36.571q 4,3.714 8.571,2.286l 190-45.429l 45.714,45.714q 21.714,21.714 49.143,30.857t 42.286-3.429z" horiz-adv-x="402.286"  />
<glyph unicode="&#xf073;" d="M 36.571,4.571l 82.286,0 l0,82.286 l-82.286,0 l0-82.286 zM 137.143,4.571l 91.429,0 l0,82.286 l-91.429,0 l0-82.286 zM 36.571,105.143l 82.286,0 l0,91.429 l-82.286,0 l0-91.429 zM 137.143,105.143l 91.429,0 l0,91.429 l-91.429,0 l0-91.429 zM 36.571,214.857l 82.286,0 l0,82.286 l-82.286,0 l0-82.286 zM 246.857,4.571l 91.429,0 l0,82.286 l-91.429,0 l0-82.286 zM 137.143,214.857l 91.429,0 l0,82.286 l-91.429,0 l0-82.286 zM 356.571,4.571l 82.286,0 l0,82.286 l-82.286,0 l0-82.286 zM 246.857,105.143l 91.429,0 l0,91.429 l-91.429,0 l0-91.429 z M 146.286,352l0,82.286 q0,3.714 -2.714,6.429t-6.429,2.714l-18.286,0 q-3.714,0 -6.429-2.714t-2.714-6.429l0-82.286 q0-3.714 2.714-6.429t 6.429-2.714l 18.286,0 q 3.714,0 6.429,2.714t 2.714,6.429zM 356.571,105.143l 82.286,0 l0,91.429 l-82.286,0 l0-91.429 zM 246.857,214.857l 91.429,0 l0,82.286 l-91.429,0 l0-82.286 zM 356.571,214.857l 82.286,0 l0,82.286 l-82.286,0 l0-82.286 zM 365.714,352l0,82.286 q0,3.714 -2.714,6.429t-6.429,2.714l-18.286,0  q-3.714,0 -6.429-2.714t-2.714-6.429l0-82.286 q0-3.714 2.714-6.429t 6.429-2.714l 18.286,0 q 3.714,0 6.429,2.714t 2.714,6.429zM 475.429,370.286l0-365.714 q0-14.857 -10.857-25.714t-25.714-10.857l-402.286,0 q-14.857,0 -25.714,10.857t-10.857,25.714l0,365.714 q0,14.857 10.857,25.714t 25.714,10.857l 36.571,0 l0,27.429 q0,18.857 13.429,32.286t 32.286,13.429l 18.286,0 q 18.857,0 32.286-13.429t 13.429-32.286l0-27.429 l 109.714,0 l0,27.429 q0,18.857 13.429,32.286t 32.286,13.429 l 18.286,0 q 18.857,0 32.286-13.429t 13.429-32.286l0-27.429 l 36.571,0 q 14.857,0 25.714-10.857t 10.857-25.714z" horiz-adv-x="475.429"  />
<glyph unicode="&#xf074;" d="M 190.286,342.571q-17.143-26.286 -39.143-78q-6.286,12.857 -10.571,20.714t-11.571,18.143t-14.571,16.143t-18,10t-23.286,4.143l-64,0 q-4,0 -6.571,2.571t-2.571,6.571l0,54.857 q0,4 2.571,6.571t 6.571,2.571l 64,0 q 71.429,0 117.143-64.286zM 512,114.286q0-4 -2.571-6.571l-91.429-91.429q-2.571-2.571 -6.571-2.571q-3.714,0 -6.429,2.714t-2.714,6.429l0,54.857 q-9.143,0 -24.286-0.143t-23.143-0.286t-20.857,0.286 t-20.286,1.429t-18.286,3t-18,5.286t-16.571,8.143t-16.857,11.429t-15.714,15.286t-16,19.857q 16.857,26.571 38.857,78q 6.286-12.857 10.571-20.714t 11.571-18.143t 14.571-16.143t 18-10t 23.286-4.143l 73.143,0 l0,54.857 q0,4 2.571,6.571t 6.571,2.571q 3.429,0 6.857-2.857l 91.143-91.143q 2.571-2.571 2.571-6.571zM 512,370.286q0-4 -2.571-6.571l-91.429-91.429q-2.571-2.571 -6.571-2.571q-3.714,0 -6.429,2.714t-2.714,6.429 l0,54.857 l-73.143,0 q-13.714,0 -24.857-4.286t-19.714-12.857t-14.571-17.571t-12.857-22.143q-9.143-17.714 -22.286-48.857q-8.286-18.857 -14.143-31.714t-15.429-30t-18.286-28.571t-21.143-23.714t-25.714-19.571t-30.429-12t-36.571-4.714l-64,0 q-4,0 -6.571,2.571t-2.571,6.571l0,54.857 q0,4 2.571,6.571t 6.571,2.571l 64,0 q 13.714,0 24.857,4.286t 19.714,12.857t 14.571,17.571t 12.857,22.143q 9.143,17.714 22.286,48.857q 8.286,18.857 14.143,31.714 t 15.429,30t 18.286,28.571t 21.143,23.714t 25.714,19.571t 30.429,12t 36.571,4.714l 73.143,0 l0,54.857 q0,4 2.571,6.571t 6.571,2.571q 3.429,0 6.857-2.857l 91.143-91.143q 2.571-2.571 2.571-6.571z"  />
<glyph unicode="&#xf075;" d="M 512,224q0-49.714 -34.286-91.857t-93.143-66.571t-128.571-24.429q-20,0 -41.429,2.286q-56.571-50 -131.429-69.143q-14-4 -32.571-6.286q-4.857-0.571 -8.714,2.571t-5,8.286l0,0.286 q-0.857,1.143 -0.143,3.429t 0.571,2.857t 1.286,2.714l 1.714,2.571t 2,2.429t 2.286,2.571q 2,2.286 8.857,9.857t 9.857,10.857t 8.857,11.286t 9.286,14.571t 7.714,16.857t 7.429,21.714q-44.857,25.429 -70.714,62.857t-25.857,80.286 q0,37.143 20.286,71t 54.571,58.429t 81.714,39t 99.429,14.429q 69.714,0 128.571-24.429t 93.143-66.571t 34.286-91.857z"  />
<glyph unicode="&#xf076;" d="M 438.857,242.286l0-36.571 q0-57.429 -28.143-103.429t-78.286-71.857t-113-25.857t-113,25.857t-78.286,71.857t-28.143,103.429l0,36.571 q0,7.429 5.429,12.857t 12.857,5.429l 109.714,0 q 7.429,0 12.857-5.429t 5.429-12.857l0-36.571 q0-14.857 6.714-25.714t 15.286-16.286t 20.286-8.571t 18.286-3.714t 12.571-0.571t 12.571,0.571t 18.286,3.714t 20.286,8.571t 15.286,16.286t 6.714,25.714l0,36.571 q0,7.429 5.429,12.857t 12.857,5.429l 109.714,0  q 7.429,0 12.857-5.429t 5.429-12.857zM 146.286,425.143l0-109.714 q0-7.429 -5.429-12.857t-12.857-5.429l-109.714,0 q-7.429,0 -12.857,5.429t-5.429,12.857l0,109.714 q0,7.429 5.429,12.857t 12.857,5.429l 109.714,0 q 7.429,0 12.857-5.429t 5.429-12.857zM 438.857,425.143l0-109.714 q0-7.429 -5.429-12.857t-12.857-5.429l-109.714,0 q-7.429,0 -12.857,5.429t-5.429,12.857l0,109.714 q0,7.429 5.429,12.857t 12.857,5.429l 109.714,0 q 7.429,0 12.857-5.429t 5.429-12.857z" horiz-adv-x="438.857"  />
<glyph unicode="&#xf077;" d="M 460.286,132.571q0-15.143 -10.571-25.714l-21.429-21.429q-10.857-10.857 -26-10.857q-15.429,0 -25.714,10.857l-138.857,138.571l-138.857-138.571q-10.286-10.857 -25.714-10.857t-25.714,10.857l-21.429,21.429q-10.857,10.286 -10.857,25.714q0,15.143 10.857,26l 186,186q 10.571,10.571 25.714,10.571q 14.857,0 26-10.571l 185.714-186q 10.857-10.857 10.857-26z" horiz-adv-x="475.429"  />
<glyph unicode="&#xf078;" d="M 460.286,278.857q0-15.143 -10.571-25.714l-186-186q-10.857-10.857 -26-10.857q-15.429,0 -25.714,10.857l-186,186q-10.857,10.286 -10.857,25.714q0,15.143 10.857,26l 21.143,21.429q 11.143,10.571 26,10.571q 15.143,0 25.714-10.571l 138.857-138.857l 138.857,138.857q 10.571,10.571 25.714,10.571q 14.857,0 26-10.571l 21.429-21.429q 10.571-11.143 10.571-26z" horiz-adv-x="475.429"  />
<glyph unicode="&#xf079;" d="M 365.714,50.286q0-3.714 -2.714-6.429t-6.429-2.714l-274.286,0 q-2.286,0 -3.857,0.571t-2.571,2t-1.571,2.286t-0.857,3.286t-0.286,3.286l0,3.714 l0,3.143 l0,45.714 l0,118.857 l-54.857,0 q-7.429,0 -12.857,5.429t-5.429,12.857q0,6.857 4.286,11.714l 91.429,109.714q 5.429,6.286 14,6.286t 14-6.286l 91.429-109.714q 4.286-4.857 4.286-11.714q0-7.429 -5.429-12.857t-12.857-5.429l-54.857,0 l0-109.714 l 164.571,0 q 4.571,0 7.143-3.143l 45.714-54.857q 2-3.143 2-6 zM 548.571,169.143q0-6.857 -4.286-11.714l-91.429-109.714q-5.714-6.571 -14-6.571t-14,6.571l-91.429,109.714q-4.286,4.857 -4.286,11.714q0,7.429 5.429,12.857t 12.857,5.429l 54.857,0 l0,109.714 l-164.571,0 q-4.571,0 -7.143,3.429l-45.714,54.857q-2,2.571 -2,5.714q0,3.714 2.714,6.429t 6.429,2.714l 274.286,0 q 2.286,0 3.857-0.571t 2.571-2t 1.571-2.286t 0.857-3.286t 0.286-3.286l0-3.714 l0-3.143 l0-45.714 l0-118.857 l 54.857,0 q 7.429,0 12.857-5.429t 5.429-12.857z " horiz-adv-x="548.571"  />
<glyph unicode="&#xf07a;" d="M 182.857,41.143q0-15.143 -10.714-25.857t-25.857-10.714t-25.857,10.714t-10.714,25.857t 10.714,25.857t 25.857,10.714t 25.857-10.714t 10.714-25.857zM 438.857,41.143q0-15.143 -10.714-25.857t-25.857-10.714t-25.857,10.714t-10.714,25.857t 10.714,25.857t 25.857,10.714t 25.857-10.714t 10.714-25.857zM 475.429,352l0-146.286 q0-6.857 -4.571-12.143t-11.714-6.143 l-298.286-34.857q 0.286-2 1.286-6.143t 1.714-7.571t 0.714-6.286q0-4.571 -6.857-18.286l 262.857,0 q 7.429,0 12.857-5.429t 5.429-12.857t-5.429-12.857t-12.857-5.429l-292.571,0 q-7.429,0 -12.857,5.429t-5.429,12.857q0,4 3.143,11.286t 8.429,17t 5.857,10.857l-50.571,235.143l-58.286,0 q-7.429,0 -12.857,5.429t-5.429,12.857t 5.429,12.857t 12.857,5.429l 73.143,0 q 4.571,0 8.143-1.857t 5.714-4.429t 3.714-7t 2.143-7.571 t 1.571-8.429t 1.286-7.286l 343.143,0 q 7.429,0 12.857-5.429t 5.429-12.857z" horiz-adv-x="475.429"  />
<glyph unicode="&#xf07b;" d="M 475.429,306.286l0-201.143 q0-26.286 -18.857-45.143t-45.143-18.857l-347.429,0 q-26.286,0 -45.143,18.857t-18.857,45.143l0,274.286 q0,26.286 18.857,45.143t 45.143,18.857l 91.429,0 q 26.286,0 45.143-18.857t 18.857-45.143l0-9.143 l 192,0 q 26.286,0 45.143-18.857t 18.857-45.143z" horiz-adv-x="475.429"  />
<glyph unicode="&#xf07c;" d="M 536.857,208q0-8.857 -8.857-18.857l-96-113.143q-12.286-14.571 -34.429-24.714t-41-10.143l-310.857,0 q-9.714,0 -17.286,3.714t-7.571,12.286q0,8.857 8.857,18.857l 96,113.143q 12.286,14.571 34.429,24.714t 41,10.143l 310.857,0 q 9.714,0 17.286-3.714t 7.571-12.286zM 438.857,306.286l0-45.714 l-237.714,0 q-26.857,0 -56.286-13.571t-46.857-34.143l-96.286-113.143l-1.429-1.714q0,1.143 -0.143,3.571 t-0.143,3.571l0,274.286 q0,26.286 18.857,45.143t 45.143,18.857l 91.429,0 q 26.286,0 45.143-18.857t 18.857-45.143l0-9.143 l 155.429,0 q 26.286,0 45.143-18.857t 18.857-45.143z" horiz-adv-x="548.571"  />
<glyph unicode="&#xf07d;" d="M 201.143,388.571q0-7.429 -5.429-12.857t-12.857-5.429l-36.571,0 l0-292.571 l 36.571,0 q 7.429,0 12.857-5.429t 5.429-12.857t-5.429-12.857l-73.143-73.143q-5.429-5.429 -12.857-5.429t-12.857,5.429l-73.143,73.143q-5.429,5.429 -5.429,12.857t 5.429,12.857t 12.857,5.429l 36.571,0 l0,292.571 l-36.571,0 q-7.429,0 -12.857,5.429t-5.429,12.857t 5.429,12.857l 73.143,73.143q 5.429,5.429 12.857,5.429t 12.857-5.429l 73.143-73.143q 5.429-5.429 5.429-12.857z" horiz-adv-x="219.429"  />
<glyph unicode="&#xf07e;" d="M 512,224q0-7.429 -5.429-12.857l-73.143-73.143q-5.429-5.429 -12.857-5.429t-12.857,5.429t-5.429,12.857l0,36.571 l-292.571,0 l0-36.571 q0-7.429 -5.429-12.857t-12.857-5.429t-12.857,5.429l-73.143,73.143q-5.429,5.429 -5.429,12.857t 5.429,12.857l 73.143,73.143q 5.429,5.429 12.857,5.429t 12.857-5.429t 5.429-12.857l0-36.571 l 292.571,0 l0,36.571 q0,7.429 5.429,12.857t 12.857,5.429t 12.857-5.429l 73.143-73.143q 5.429-5.429 5.429-12.857z"  />
<glyph unicode="&#xf080;" d="M 146.286,187.429l0-109.714 l-73.143,0 l0,109.714 l 73.143,0 zM 256,333.714l0-256 l-73.143,0 l0,256 l 73.143,0 zM 365.714,260.571l0-182.857 l-73.143,0 l0,182.857 l 73.143,0 zM 475.429,370.286l0-292.571 l-73.143,0 l0,292.571 l 73.143,0 zM 512,50.286l0,347.429 q0,3.714 -2.714,6.429t-6.429,2.714l-457.143,0 q-3.714,0 -6.429-2.714t-2.714-6.429l0-347.429 q0-3.714 2.714-6.429t 6.429-2.714l 457.143,0 q 3.714,0 6.429,2.714t 2.714,6.429z M 548.571,397.714l0-347.429 q0-18.857 -13.429-32.286t-32.286-13.429l-457.143,0 q-18.857,0 -32.286,13.429t-13.429,32.286l0,347.429 q0,18.857 13.429,32.286t 32.286,13.429l 457.143,0 q 18.857,0 32.286-13.429t 13.429-32.286z" horiz-adv-x="548.571"  />
<glyph unicode="&#xf081;" d="M 365.714,305.714q-16-7.143 -34.571-9.714q 19.429,11.429 26.571,33.429q-18.571-10.857 -38.286-14.571q-17.429,18.857 -43.714,18.857q-24.857,0 -42.429-17.571t-17.571-42.429q0-8.286 1.429-13.714q-36.857,2 -69.143,18.571t-54.857,44.286q-8.286-14.286 -8.286-30.286q0-32.571 26-50q-13.429,0.286 -28.571,7.429l0-0.571 q0-21.429 14.286-38.143t 35.143-20.714q-8.286-2.286 -14.571-2.286q-3.714,0 -11.143,1.143 q 6-18 21.286-29.714t 34.714-12q-33.143-25.714 -74.571-25.714q-7.429,0 -14.286,0.857q 42.286-26.857 92-26.857q 32,0 60,10.143t 48,27.143t 34.429,39.143t 21.429,46.286t 7,48.143q0,5.143 -0.286,7.714q 18,12.857 30,31.143zM 438.857,361.143l0-274.286 q0-34 -24.143-58.143t-58.143-24.143l-274.286,0 q-34,0 -58.143,24.143t-24.143,58.143l0,274.286 q0,34 24.143,58.143 t 58.143,24.143l 274.286,0 q 34,0 58.143-24.143t 24.143-58.143z" horiz-adv-x="438.857"  />
<glyph unicode="&#xf082;" d="M 373.429,217.714l 6.571,62.571l-56.571,0 l0,31.143 q0,14 4.429,19.571t 20.429,5.571l 31.429,0 l0,62.571 l-50,0 q-43.429,0 -62.286-20.571t-18.857-60.857l0-37.429 l-37.429,0 l0-62.571 l 37.429,0 l0-181.429 l 74.857,0 l0,181.429 l 50,0 zM 438.857,361.143l0-274.286 q0-34 -24.143-58.143t-58.143-24.143l-274.286,0 q-34,0 -58.143,24.143t-24.143,58.143l0,274.286 q0,34 24.143,58.143t 58.143,24.143l 274.286,0  q 34,0 58.143-24.143t 24.143-58.143z" horiz-adv-x="438.857"  />
<glyph unicode="&#xf083;" d="M 265.143,242.286q0,4 -2.571,6.571t-6.571,2.571q-18.857,0 -32.286-13.429t-13.429-32.286q0-4 2.571-6.571t 6.571-2.571t 6.571,2.571t 2.571,6.571q0,11.429 8,19.429t 19.429,8q 4,0 6.571,2.571t 2.571,6.571zM 329.143,205.143q0-30.286 -21.429-51.714t-51.714-21.429t-51.714,21.429t-21.429,51.714t 21.429,51.714t 51.714,21.429t 51.714-21.429t 21.429-51.714zM 36.571,41.143l 438.857,0 l0,36.571 l-438.857,0 l0-36.571 zM 365.714,205.143q0,45.429 -32.143,77.571 t-77.571,32.143t-77.571-32.143t-32.143-77.571t 32.143-77.571t 77.571-32.143t 77.571,32.143t 32.143,77.571zM 73.143,388.571l 109.714,0 l0,36.571 l-109.714,0 l0-36.571 zM 36.571,333.714l 438.857,0 l0,33.714 l0,39.429 l-236.571,0 l-18.286-36.571l-184,0 l0-36.571 zM 512,406.857l0-365.714 q0-15.143 -10.714-25.857t-25.857-10.714l-438.857,0 q-15.143,0 -25.857,10.714t-10.714,25.857l0,365.714  q0,15.143 10.714,25.857t 25.857,10.714l 438.857,0 q 15.143,0 25.857-10.714t 10.714-25.857z"  />
<glyph unicode="&#xf084;" d="M 237.714,333.714q0,22.857 -16,38.857t-38.857,16t-38.857-16t-16-38.857q0-12 5.429-23.714q-11.714,5.429 -23.714,5.429q-22.857,0 -38.857-16t-16-38.857t 16-38.857t 38.857-16t 38.857,16t 16,38.857q0,12 -5.429,23.714q 11.714-5.429 23.714-5.429q 22.857,0 38.857,16t 16,38.857zM 480.857,132.571q0-4.857 -14-18.857t-18.857-14q-2.571,0 -8.143,4.571t-10.429,9.429t-11,11.429t-7,7.429 l-27.429-27.429l 62.857-62.857q 8-8 8-19.429q0-12 -11.143-23.143t-23.143-11.143q-11.429,0 -19.429,8l-191.714,191.714q-50.286-37.429 -104.286-37.429q-46.571,0 -75.857,29.286t-29.286,75.857q0,45.714 27.143,89.429t 70.857,70.857t 89.429,27.143q 46.571,0 75.857-29.286t 29.286-75.857q0-54 -37.429-104.286l 101.429-101.429l 27.429,27.429q-0.857,0.857 -7.429,7t-11.429,11t-9.429,10.429 t-4.571,8.143q0,4.857 14,18.857t 18.857,14q 3.714,0 6.571-2.857q 1.714-1.714 13.143-12.714t 23.429-22.714t 24.714-24.571t 20.857-22.286t 8.143-11.714z"  />
</font>
</defs>
</svg>
